<?xml version="1.0" standalone="no"?>
<!DOCTYPE svg PUBLIC "-//W3C//DTD SVG 1.1//EN" "http://www.w3.org/Graphics/SVG/1.1/DTD/svg11.dtd" >
<svg>
<metadata>
Created by FontForge 20090622 at Wed Mar  5 05:03:38 2014
 By ffonts
1.2, Copyright Copr. Castcraft Software, Inc. 1990-1991.
</metadata>
<defs>
<font id="OPTIEisen-Bold" horiz-adv-x="566" >
  <font-face 
    font-family="OPTIEisen-Bold"
    font-weight="700"
    font-stretch="normal"
    units-per-em="1000"
    panose-1="0 0 0 0 0 0 0 0 0 0"
    ascent="800"
    descent="-200"
    x-height="397"
    cap-height="789"
    bbox="15.3087 -251.769 1320.13 1111"
    underline-thickness="62"
    underline-position="-81"
    stemh="22"
    stemv="126"
    unicode-range="U+0020-U+FB02"
  />
<missing-glyph horiz-adv-x="280" 
 />
    <glyph glyph-name=".notdef" horiz-adv-x="280" 
 />
    <glyph glyph-name="space" unicode=" " horiz-adv-x="185" 
d="M0 0z" />
    <glyph glyph-name="exclam" unicode="!" horiz-adv-x="340" 
d="M81 791h195v-15h-22c-8 -9 -10 -36 -12 -54l-32 -493c0 -6 -1 -15 -2 -20c-3 -9 -4 -26 -16 -26c-10 0 -11 10 -8 27c1 7 2 22 2 34c0 18 -1 38 -3 57l-57 384c-4 21 -9 69 8 89h-53v17zM278 70c-4 -43 -45 -74 -87 -70c-43 4 -74 46 -70 89c5 42 45 73 88 68
c42 -4 74 -45 69 -87z" />
    <glyph glyph-name="quotedbl" unicode="&#x22;" horiz-adv-x="263" 
d="M107 489h-22l-23 186c-5 25 -26 116 11 138c10 7 29 9 45 -2c32 -20 14 -108 12 -134zM227 489h-22l-23 186c-5 25 -26 116 11 138c10 7 29 9 45 -2c32 -20 15 -108 11 -134z" />
    <glyph glyph-name="numbersign" unicode="#" horiz-adv-x="820" 
d="M397 725h88l-83 -235h142l83 235h88l-83 -235h164l-24 -68h-164l-52 -149h163l-23 -69h-164l-84 -238h-88l84 238h-142l-84 -238h-88l84 238h-162l23 69h163l53 149h-163l25 68h161zM325 273h143l53 149h-143z" />
    <glyph glyph-name="dollar" unicode="$" horiz-adv-x="512" 
d="M284 685v-35c49 -1 117 -19 150 -56c30 -32 39 -69 30 -97c-7 -27 -29 -41 -48 -46c-21 -5 -43 2 -58 18c-24 25 -28 97 43 99c3 18 -24 55 -117 61v-233c61 -25 155 -58 190 -130c28 -58 53 -272 -190 -274v-58h-21v57c-137 1 -189 55 -208 107c-10 28 -9 57 6 77
c13 18 36 26 56 24c23 -1 42 -16 51 -34c12 -19 8 -42 3 -53c-16 -27 -41 -31 -69 -30c3 -28 64 -65 161 -66v242c-182 62 -193 168 -189 230c8 112 110 154 189 162v35h21zM140 579c-19 -19 -22 -47 -20 -66c7 -58 116 -94 143 -107v223c-49 -4 -97 -24 -123 -50zM284 15
c58 2 91 11 117 30c32 23 48 48 46 81c-6 64 -124 104 -163 122v-233z" />
    <glyph glyph-name="percent" unicode="%" horiz-adv-x="726" 
d="M542 685l-349 -681h-50l331 610c-26 -15 -65 -34 -141 -32c7 -53 -10 -123 -66 -167c-37 -28 -103 -39 -142 -24c-43 15 -67 46 -74 87c-9 46 5 100 49 140s108 53 154 36c59 -21 36 -47 102 -45c36 2 95 6 160 76h26zM698 366c16 -48 2 -122 -63 -170
c-41 -30 -103 -39 -142 -24c-43 15 -67 46 -74 87c-9 46 5 100 49 141c44 39 102 52 153 39c40 -11 66 -39 77 -73zM152 569c-24 -43 -36 -111 -26 -134c6 -15 18 -22 30 -23c17 -3 37 7 55 26c35 38 61 125 54 158c-3 19 -10 30 -23 35c-15 5 -33 3 -46 -6
c-14 -9 -29 -29 -44 -56zM520 350c-24 -42 -36 -111 -26 -133c7 -16 18 -23 30 -24c17 -3 37 7 55 26c35 38 61 126 54 158c-3 19 -10 30 -22 35c-16 6 -34 3 -46 -6c-15 -9 -30 -29 -45 -56z" />
    <glyph glyph-name="ampersand" unicode="&#x26;" horiz-adv-x="716" 
d="M479 787h22v-188h-22v74c-24 50 -68 74 -99 88c-21 9 -70 13 -103 -8c-85 -56 -58 -255 -36 -297c49 15 75 20 95 20c13 1 46 -1 62 -15c11 -8 9 -22 3 -29c-43 -40 -137 -13 -162 -6c-63 -72 -63 -242 -36 -320c19 -54 47 -81 98 -91c55 -11 172 3 232 68
c33 35 52 94 36 147c-7 23 -15 39 -15 39c-66 0 -124 3 -142 -12c-9 -8 -12 -22 -8 -35c2 -9 15 -18 36 -26l-8 -14c-25 8 -52 25 -59 59c-7 28 1 62 25 91c44 52 129 50 179 50h63c19 0 33 5 33 27v28h22v-225h-23v67c-18 -12 -36 -10 -95 -10c26 -50 32 -130 -27 -198
c-74 -86 -212 -87 -273 -78c-84 13 -169 46 -212 150c-25 61 -25 138 23 203c33 46 65 66 116 91c-74 36 -111 86 -115 147c-4 47 11 104 60 144c93 78 228 68 330 26v33zM288 441c36 -12 83 -9 83 2c0 17 -58 14 -83 -2z" />
    <glyph glyph-name="quotesingle" unicode="'" horiz-adv-x="229" 
d="M59 624c0 3 0 7 2 9c5 8 15 4 29 7c22 3 65 17 72 61c-27 -14 -62 -6 -86 20c-14 15 -19 46 -11 72c6 23 24 44 51 52c20 7 51 5 73 -12c28 -23 33 -57 32 -83c-1 -37 -16 -81 -65 -114c-15 -9 -36 -19 -62 -21c-12 -1 -33 -1 -35 9z" />
    <glyph glyph-name="parenleft" unicode="(" horiz-adv-x="253" 
d="M116 92c-120 236 -68 503 115 786h13c-49 -71 -112 -200 -112 -321v-329c0 -130 22 -194 115 -337l-9 -7c-24 34 -100 165 -122 208z" />
    <glyph glyph-name="parenright" unicode=")" horiz-adv-x="253" 
d="M57 -116l-9 7c93 143 115 207 115 337v329c0 121 -63 250 -111 321h12c183 -283 236 -550 116 -786c-23 -43 -99 -174 -123 -208z" />
    <glyph glyph-name="asterisk" unicode="*" horiz-adv-x="380" 
d="M162 811l50 -106l48 103l64 -36l-67 -92l117 11v-75l-114 13l68 -96l-66 -39l-49 109l-46 -111l-68 35l69 100l-116 -16v80l112 -11l-67 88z" />
    <glyph glyph-name="plus" unicode="+" horiz-adv-x="863" 
d="M396 679h128v-276h269v-129h-269v-274h-128v274h-274v129h274v276z" />
    <glyph glyph-name="comma" unicode="," horiz-adv-x="229" 
d="M61 -72c0 4 0 7 1 9c5 8 15 5 29 7c22 3 65 17 72 62c-27 -15 -62 -7 -86 19c-14 15 -20 47 -12 72c8 24 25 44 52 52c20 7 51 5 73 -12c28 -23 33 -57 32 -83c-1 -37 -15 -81 -65 -113c-14 -9 -36 -20 -62 -22c-12 -1 -33 -1 -34 9z" />
    <glyph glyph-name="hyphen" unicode="-" horiz-adv-x="402" 
d="M122 196h210v-39h-210v39z" />
    <glyph glyph-name="period" unicode="." horiz-adv-x="229" 
d="M221 64c-1 -43 -38 -75 -81 -74c-42 1 -74 39 -73 82c1 42 37 74 80 73s75 -38 74 -81z" />
    <glyph glyph-name="slash" unicode="/" horiz-adv-x="544" 
d="M453 796h87l-400 -805h-87z" />
    <glyph glyph-name="zero" unicode="0" 
d="M553 309c4 -193 -73 -328 -248 -328c-178 0 -248 148 -248 328c0 203 103 321 247 321c152 0 246 -110 249 -321zM202 305c-1 -143 22 -301 104 -301c90 0 106 158 105 301c-1 212 -26 301 -106 301c-78 0 -102 -89 -103 -301z" />
    <glyph glyph-name="one" unicode="1" 
d="M385 643v-571c0 -44 -11 -55 -11 -55h66c11 0 10 -17 0 -17h-240c-11 0 -11 17 0 17h14c25 1 28 12 28 34v401c0 24 3 37 12 58l-60 -49c-10 -8 -23 7 -13 15z" />
    <glyph glyph-name="two" unicode="2" 
d="M278 138h182c28 0 44 -11 44 -11v75c0 11 17 15 17 0v-237c0 -11 -17 -12 -17 0c0 23 -3 35 -55 35h-376l120 102c176 149 241 285 220 382c-12 55 -45 105 -112 120c-29 7 -72 4 -116 -17c-51 -26 -88 -88 -88 -150c0 -37 5 -61 15 -81c4 -9 -13 -19 -20 -8
c-19 34 -26 119 1 171c34 63 90 96 146 106c65 11 152 2 211 -55c45 -43 66 -104 63 -154c-7 -89 -56 -140 -163 -222z" />
    <glyph glyph-name="three" unicode="3" 
d="M464 611l-186 -241c61 14 148 0 199 -59c42 -49 47 -128 27 -185c-28 -79 -100 -129 -177 -142c-68 -11 -174 5 -232 69c-6 12 7 24 14 15c49 -56 144 -79 195 -59c33 12 59 47 69 97c9 46 21 159 -17 224c-16 26 -77 41 -130 -14l-8 9l113 148h-153c-28 0 -43 11 -43 11
v-60c0 -10 -17 -12 -17 0v203c0 12 17 12 17 0c0 -20 3 -16 55 -16h274z" />
    <glyph glyph-name="four" unicode="4" 
d="M325 53v145h-263c-11 0 -7 7 -3 12l409 420v-410h57c14 0 13 -22 0 -22h-57v-126c0 -44 -12 -55 -12 -55h63c11 0 10 -17 0 -17h-241c-11 0 -11 17 0 17h25c17 0 22 10 22 36zM97 220h228v238z" />
    <glyph glyph-name="five" unicode="5" 
d="M363 611c51 0 55 -4 55 16c0 12 16 12 16 0v-203c0 -12 -16 -10 -16 0v60s-16 -11 -44 -11h-222v-140c78 52 180 69 266 13c55 -36 87 -113 81 -171c-5 -64 -38 -136 -115 -173c-73 -35 -210 -29 -285 45c-10 7 2 21 11 16c49 -51 134 -72 181 -53c47 20 58 55 65 102
c5 42 10 178 -40 218c-33 26 -108 33 -182 -38v319h229z" />
    <glyph glyph-name="six" unicode="6" 
d="M476 630c12 0 11 -16 0 -17c-229 -29 -259 -229 -263 -270c49 85 165 71 210 54c44 -17 100 -68 115 -143c10 -50 1 -141 -46 -193c-57 -64 -136 -88 -209 -78c-69 9 -143 48 -185 133c-41 79 -43 216 18 317c83 141 232 197 360 197zM215 279c-2 -46 -5 -213 47 -254
c23 -19 66 -21 84 -12c42 22 50 72 55 106c4 40 28 213 -31 257c-22 17 -58 15 -79 6c-44 -19 -73 -62 -76 -103z" />
    <glyph glyph-name="seven" unicode="7" 
d="M152 473c-29 0 -44 11 -44 11v-60c0 -10 -17 -12 -17 0v203c0 12 17 12 17 0c0 -20 3 -16 55 -16h379l-177 -256c-81 -118 -110 -270 -121 -338h57c12 0 12 -17 0 -17h-174c-10 0 -13 17 0 17h18c47 149 100 224 270 456h-263z" />
    <glyph glyph-name="eight" unicode="8" 
d="M422 336c83 -57 114 -104 110 -182c-3 -54 -35 -118 -100 -151c-69 -34 -204 -28 -266 12s-85 95 -83 151c2 47 26 103 93 143c-60 58 -71 131 -57 183c18 69 63 115 132 132c57 13 145 7 199 -44c46 -42 52 -100 42 -145c-11 -44 -42 -77 -70 -99zM185 516
c-2 -30 10 -58 61 -87c76 -44 150 -82 150 -82c33 20 54 88 57 111c3 29 2 80 -51 120c-37 29 -112 36 -148 22c-40 -15 -67 -50 -69 -84zM168 264c-37 -49 -46 -110 -23 -166c18 -45 63 -78 106 -89c50 -12 134 -12 179 27c23 20 37 48 34 74c-7 57 -89 90 -125 109
l-132 72c-16 -4 -29 -15 -39 -27z" />
    <glyph glyph-name="nine" unicode="9" 
d="M135 -15c-13 0 -12 16 0 17c229 29 259 229 262 270c-48 -85 -165 -71 -210 -54c-43 17 -99 68 -114 143c-10 50 -1 141 46 193c56 64 136 88 209 78c68 -9 142 -48 185 -133c40 -79 43 -216 -18 -317c-83 -140 -232 -197 -360 -197zM395 336c2 46 6 213 -46 254
c-24 19 -66 21 -84 12c-43 -22 -51 -72 -55 -106c-5 -40 -28 -213 30 -257c23 -17 59 -15 80 -6c44 20 73 62 75 103z" />
    <glyph glyph-name="colon" unicode=":" horiz-adv-x="229" 
d="M220 308c-3 -43 -43 -73 -85 -70c-43 3 -73 43 -70 85c3 43 43 73 85 70c43 -4 73 -43 70 -85zM220 66c-3 -42 -43 -73 -85 -69c-43 3 -73 42 -70 85s43 73 85 70c43 -4 73 -43 70 -86z" />
    <glyph glyph-name="semicolon" unicode=";" horiz-adv-x="229" 
d="M218 308c-4 -43 -43 -73 -86 -70c-42 3 -73 43 -69 85c3 43 42 73 85 70c43 -4 73 -43 70 -85zM56 -72c0 4 0 7 1 9c6 8 16 5 29 7c23 3 66 17 72 62c-27 -15 -61 -7 -85 19c-15 15 -20 47 -12 72c7 24 24 44 51 52c20 7 52 5 73 -12c28 -23 34 -57 33 -83
c-1 -37 -16 -81 -65 -113c-15 -9 -36 -20 -62 -22c-12 -1 -34 -1 -35 9z" />
    <glyph glyph-name="less" unicode="&#x3c;" horiz-adv-x="680" 
d="M122 398l489 182v-110l-374 -131l374 -132v-110l-489 181v120z" />
    <glyph glyph-name="equal" unicode="=" horiz-adv-x="1004" 
d="M935 553v-129h-813v129h813zM935 253v-130h-813v130h813z" />
    <glyph glyph-name="greater" unicode="&#x3e;" horiz-adv-x="680" 
d="M611 278l-489 -181v110l374 132l-374 131v110l489 -182v-120z" />
    <glyph glyph-name="question" unicode="?" horiz-adv-x="389" 
d="M181 178c0 -11 -23 -14 -23 -1v115c0 108 -11 138 80 246l19 22c39 47 74 90 66 137c-5 34 -39 55 -72 62c-52 11 -114 -32 -181 -99v-45c0 -9 -19 -15 -19 0v161c0 14 19 13 19 0v-17c52 21 162 40 224 4c54 -30 80 -95 88 -142c16 -97 -4 -133 -94 -242l-70 -88
c-41 -52 -37 -70 -37 -113zM244 70c-5 -42 -45 -71 -87 -67c-41 5 -69 45 -65 87c5 41 44 70 85 66c42 -4 71 -45 67 -86z" />
    <glyph glyph-name="at" unicode="@" horiz-adv-x="994" 
d="M606 169c-46 -72 -108 -97 -164 -98c-46 -1 -102 20 -136 75c-40 69 -27 169 13 243c44 88 125 146 200 151c52 3 108 -9 139 -82l19 63h125l-65 -233c-6 -25 -38 -111 -14 -136c11 -12 27 -17 50 -13c58 10 99 71 120 123c36 88 40 209 -25 299
c-78 110 -238 131 -315 129c-129 -8 -258 -58 -348 -219c-60 -111 -65 -282 -6 -392c70 -130 206 -178 316 -184c117 -7 235 28 350 99l27 -43c-192 -122 -432 -149 -595 -69c-157 79 -225 222 -236 355c-12 133 32 299 195 415c142 102 371 117 515 55
c131 -57 184 -138 201 -266c12 -82 -12 -243 -113 -322c-53 -42 -132 -60 -186 -39c-43 17 -60 42 -67 89zM416 209c-2 -31 9 -56 33 -68c17 -7 41 -6 62 3c69 32 109 201 114 241c2 28 0 61 -22 76c-17 14 -50 16 -69 6c-67 -36 -113 -205 -118 -258z" />
    <glyph glyph-name="A" unicode="A" horiz-adv-x="836" 
d="M458 826l346 -765c7 -21 18 -39 40 -39c15 0 16 -21 0 -22h-256c-14 0 -12 22 0 22h81s-18 12 -32 37l-99 220h-289c-39 -103 -51 -196 -42 -257h61c15 0 18 -23 0 -22h-201c-15 -1 -12 21 0 22h10c17 0 33 20 49 54zM258 304h267s-127 283 -131 310z" />
    <glyph glyph-name="B" unicode="B" horiz-adv-x="700" 
d="M77 0c-13 0 -10 22 0 22h15c35 0 30 39 30 59v629c0 34 1 41 12 57h-83c-13 0 -12 22 0 22h304c68 0 167 1 226 -84c35 -50 46 -116 25 -170c-28 -69 -100 -103 -133 -115c46 -7 161 -17 206 -130c22 -58 24 -127 -22 -196c-68 -97 -191 -95 -256 -95zM276 110
c0 -35 2 -73 -11 -88h82c57 0 123 -4 170 54c36 44 35 217 -11 273c-73 89 -163 19 -230 81v-320zM276 767v-278c0 -32 7 -36 21 -49c16 -15 76 -27 109 -11c45 21 54 61 62 102c6 30 3 159 -46 204c-38 35 -77 32 -146 32z" />
    <glyph glyph-name="C" unicode="C" horiz-adv-x="759" 
d="M728 762v25c0 12 23 12 23 0v-263c0 -11 -23 -12 -23 0v108c-39 57 -80 90 -121 115c-60 36 -170 51 -240 9c-112 -67 -140 -257 -143 -314c-3 -85 4 -299 141 -394c78 -54 182 -40 252 -1c51 28 99 71 138 127c12 17 31 -6 24 -20c-37 -59 -108 -120 -166 -145
c-108 -45 -249 -34 -355 29c-123 74 -191 224 -197 329c-8 117 37 263 158 358c142 112 334 83 480 45z" />
    <glyph glyph-name="D" unicode="D" horiz-adv-x="853" 
d="M77 0c-13 0 -10 22 0 22h15c35 0 30 39 30 59v629c0 34 1 41 12 57h-83c-13 0 -12 22 0 22h374c135 0 290 -39 372 -185c64 -114 64 -305 0 -418c-81 -146 -199 -186 -346 -186h-374zM389 22c95 0 136 -7 208 78c103 122 101 341 60 476c-27 83 -104 191 -287 191
c-52 0 -71 -5 -82 -13c-14 -11 -12 -30 -12 -110v-568c0 -25 -1 -38 -11 -54h124z" />
    <glyph glyph-name="E" unicode="E" horiz-adv-x="669" 
d="M77 0c-13 0 -10 22 0 22h15c35 0 30 39 30 59v629c0 34 1 41 12 57h-83c-13 0 -12 22 0 22h571v25c0 10 22 12 22 0v-200c0 -16 -22 -15 -22 0v68c-50 46 -84 69 -157 80c-36 6 -151 6 -163 3c-29 -4 -26 -21 -26 -123v-186h6c106 0 194 6 214 42v47c0 14 21 16 23 0
v-251c0 -12 -23 -11 -23 0v86c-45 50 -92 52 -220 52v-351c0 -39 -6 -47 -11 -59h91c45 0 102 2 150 14c60 15 130 44 152 89v73c0 14 21 15 22 0v-224c0 -9 -22 -9 -22 1v25h-581z" />
    <glyph glyph-name="F" unicode="F" horiz-adv-x="644" 
d="M122 710c0 34 1 41 12 57h-83c-13 0 -12 22 0 22h571v25c0 10 22 12 22 0v-200c0 -16 -22 -15 -22 0v68c-50 46 -84 69 -157 80c-36 6 -151 6 -163 3c-29 -4 -26 -21 -26 -123v-186h6c106 0 194 6 214 42v47c0 14 23 16 23 0v-251c0 -12 -23 -11 -23 0v86
c-45 50 -92 52 -220 52v-353c0 -34 -1 -41 -11 -57h83c11 0 10 -22 0 -22h-271c-13 0 -10 22 0 22h15c35 0 30 39 30 59v629z" />
    <glyph glyph-name="G" unicode="G" horiz-adv-x="817" 
d="M804 110c-126 -139 -358 -159 -520 -88c-146 64 -225 215 -225 361c0 116 36 248 158 343c142 112 334 83 480 45l29 -8v25c0 12 23 12 23 0v-263c0 -11 -23 -12 -23 0v107c-25 41 -81 91 -121 117c-61 36 -171 50 -240 9c-112 -68 -146 -237 -148 -327
c-3 -101 1 -306 151 -393c73 -41 235 -29 282 20v225c0 33 1 40 11 56h-92c-15 0 -11 22 0 22h268c11 0 13 -22 -1 -22h-2c-35 0 -30 -37 -30 -57v-172z" />
    <glyph glyph-name="H" unicode="H" horiz-adv-x="875" 
d="M652 428h-376v-349c0 -34 -1 -41 -11 -57h83c11 0 10 -22 0 -22h-271c-13 0 -10 22 0 22h15c35 0 30 39 30 59v629c0 34 1 41 12 57h-83c-13 0 -12 22 0 22h270c11 0 12 -22 -1 -22h-14c-34 0 -30 -37 -30 -58v-257h376v258c0 34 1 41 11 57h-83c-12 0 -11 22 0 22h271
c11 0 12 -22 -1 -22h-14c-35 0 -30 -37 -30 -58v-630c0 -34 -1 -41 -11 -57h83c11 0 10 -22 0 -22h-271c-13 0 -10 22 0 22h15c35 0 30 39 30 59v347z" />
    <glyph glyph-name="I" unicode="I" horiz-adv-x="346" 
d="M276 79c0 -34 -1 -41 -11 -57h83c11 0 10 -22 0 -22h-271c-13 0 -10 22 0 22h15c35 0 30 39 30 59v629c0 34 1 41 12 57h-83c-13 0 -12 22 0 22h270c11 0 12 -22 -1 -22h-14c-34 0 -30 -37 -30 -58v-630z" />
    <glyph glyph-name="J" unicode="J" horiz-adv-x="488" 
d="M419 219c0 -66 -9 -140 -77 -195c-70 -59 -206 -48 -262 -14v-37c0 -10 -23 -11 -23 0v218c0 16 23 12 23 0v-71c12 -54 42 -98 73 -111c14 -7 51 -11 71 1c44 27 41 92 41 129v571c0 34 1 41 11 57h-83c-12 0 -11 22 0 22h271c11 0 12 -22 -2 -22h-13
c-35 0 -30 -37 -30 -58v-490z" />
    <glyph glyph-name="K" unicode="K" horiz-adv-x="747" 
d="M276 360v-281c0 -34 -1 -41 -11 -57h83c11 0 10 -22 0 -22h-271c-13 0 -10 22 0 22h15c35 0 30 39 30 59v629c0 34 1 41 12 57h-83c-13 0 -12 22 0 22h270c11 0 12 -22 -1 -22h-14c-34 0 -30 -37 -30 -58v-312l144 147c99 102 111 122 129 223h-62c-17 0 -13 22 0 22h222
c16 0 16 -22 0 -22h-34s-20 -18 -21 -21l-252 -260s28 -8 58 -58l176 -296c24 -40 53 -92 98 -89c13 1 18 3 38 14c9 5 15 -12 7 -18c-28 -24 -117 -48 -171 -35c-81 21 -106 62 -162 159l-108 186c-17 28 -24 29 -36 36z" />
    <glyph glyph-name="L" unicode="L" horiz-adv-x="617" 
d="M77 0c-13 0 -10 22 0 22h15c35 0 30 39 30 59v629c0 34 1 41 12 57h-83c-13 0 -12 22 0 22h270c11 0 12 -22 -1 -22h-14c-34 0 -30 -37 -30 -58v-630c0 -34 -3 -41 -13 -57h106c83 4 181 18 244 96v75c0 12 21 15 22 0v-218c0 -12 -22 -14 -22 0v25h-536z" />
    <glyph glyph-name="M" unicode="M" horiz-adv-x="982" 
d="M901 22h83c12 0 10 -22 0 -22h-270c-14 0 -10 22 0 22h14c35 0 31 39 31 59v652s-258 -552 -318 -590c-1 44 -22 84 -41 119l-226 409v-301c9 -189 28 -307 2 -348h98c18 0 19 -22 0 -22h-229c-14 0 -15 22 0 22h37c47 68 52 185 52 266v454l-13 25h-79
c-17 0 -18 22 0 22h269c17 0 14 -22 0 -22h-39c7 -7 13 -12 24 -31l178 -320c28 -51 32 -106 32 -106l232 457h-71c-15 0 -15 22 0 22h285c17 0 18 -22 0 -22c-25 -3 -40 0 -40 -59v-629c0 -35 -1 -41 -11 -57z" />
    <glyph glyph-name="N" unicode="N" horiz-adv-x="816" 
d="M746 -30l-572 701v-301c9 -189 28 -307 2 -348h98c18 0 19 -22 0 -22h-229c-14 0 -15 22 0 22h37c47 68 52 185 52 266v428l-35 51h-57c-17 1 -18 22 0 22h290c17 0 16 -22 0 -22h-53l427 -522v174c-7 190 -18 309 -2 348h-70c-18 0 -19 22 0 22h185c14 0 15 -22 0 -22
h-21c-37 -43 -52 -185 -52 -266v-531z" />
    <glyph glyph-name="O" unicode="O" horiz-adv-x="880" 
d="M226 404c1 -212 79 -395 242 -395c194 0 241 183 242 395c2 190 -69 374 -243 374c-173 0 -243 -184 -241 -374zM872 389c-2 -239 -182 -407 -407 -407c-234 0 -403 168 -406 407c-2 224 158 416 407 416c249 -1 408 -192 406 -416z" />
    <glyph glyph-name="P" unicode="P" horiz-adv-x="668" 
d="M276 654v-190c0 -43 6 -52 42 -68c45 -20 111 -23 142 -3c80 51 71 200 66 230c-7 53 -40 110 -92 130c-22 9 -37 14 -88 14c-43 0 -49 -3 -60 -9c-10 -6 -10 -22 -10 -104zM276 79c0 -34 -1 -41 -11 -57h83c11 0 10 -22 0 -22h-271c-13 0 -10 22 0 22h15
c35 0 30 39 30 59v629c0 34 1 41 12 57h-83c-13 0 -12 22 0 22h323c88 0 167 8 233 -66c47 -52 61 -120 50 -183c-13 -63 -50 -122 -117 -156c-75 -38 -181 -42 -264 8v-313z" />
    <glyph glyph-name="Q" unicode="Q" horiz-adv-x="880" 
d="M226 404c0 -212 79 -395 242 -395c194 0 242 183 242 395c0 190 -69 374 -243 374c-173 0 -241 -184 -241 -374zM480 -18h-15c-234 0 -406 168 -406 407c0 224 158 416 407 416s406 -192 406 -416c0 -182 -107 -324 -258 -381c74 -14 93 -32 137 -81
c38 -44 60 -79 85 -89c12 -4 26 -3 57 18c10 7 18 -9 10 -16c-68 -54 -190 -81 -273 13l-18 20c-69 76 -86 107 -132 109z" />
    <glyph glyph-name="R" unicode="R" horiz-adv-x="751" 
d="M514 400c76 50 70 179 55 233c-16 57 -45 103 -111 123c-34 11 -72 11 -139 11c-36 0 -43 -12 -43 -87v-304c63 -27 180 -15 238 24zM276 79c0 -34 -1 -41 -11 -57h83c11 0 10 -22 0 -22h-271c-13 0 -10 22 0 22h15c35 0 30 39 30 59v629c0 34 1 41 12 57h-83
c-13 0 -12 22 0 22h319c81 0 238 7 308 -111c32 -54 29 -155 -24 -219c-64 -77 -170 -99 -192 -102c35 -25 58 -53 81 -92l73 -124c13 -20 66 -119 118 -119c11 0 25 0 39 9c8 3 12 -11 5 -15c-35 -26 -120 -37 -176 -23c-79 19 -118 91 -156 154l-118 196
c-25 6 -23 4 -52 13v-277z" />
    <glyph glyph-name="S" unicode="S" horiz-adv-x="598" 
d="M521 779v32c0 15 22 15 22 0v-224c0 -12 -22 -15 -22 0v56c-32 60 -79 91 -112 109c-66 35 -160 30 -220 6c-39 -16 -66 -63 -63 -104c3 -67 52 -93 133 -131l151 -72c103 -48 171 -115 179 -213c6 -65 -9 -154 -97 -211c-105 -67 -294 -44 -398 -19v-21
c0 -12 -22 -14 -22 0v237c0 14 22 13 22 0v-86c6 -20 23 -39 79 -81c78 -57 193 -66 280 -21c51 25 73 61 73 111c-1 80 -65 104 -141 145l-123 58c-86 41 -196 98 -203 227c-3 63 21 149 99 195c88 53 252 33 363 7z" />
    <glyph glyph-name="T" unicode="T" horiz-adv-x="743" 
d="M461 79c0 -34 -1 -41 -11 -57h83c11 0 10 -22 0 -22h-270c-14 0 -10 22 0 22h14c35 0 31 39 31 59v686c-105 0 -195 -13 -247 -85v-80c0 -13 -23 -14 -23 0v208c1 17 23 16 23 0v-21h648v21c0 17 23 15 23 0v-207c0 -15 -22 -14 -23 0v75c-49 74 -157 89 -248 89v-688z
" />
    <glyph glyph-name="U" unicode="U" horiz-adv-x="852" 
d="M782 330c0 -109 -18 -237 -162 -315c-105 -57 -272 -32 -345 13c-137 82 -153 209 -153 326v356c0 34 1 41 12 57h-83c-13 0 -12 22 0 22h270c11 0 12 -22 -1 -22h-14c-34 0 -30 -37 -30 -58v-341c0 -172 0 -275 106 -334c64 -37 167 -26 233 13c139 82 130 226 130 292
v80c-7 190 -30 313 -27 348h-70c-18 0 -18 22 1 22h194c13 0 14 -22 0 -22h-32c-18 -31 -29 -185 -29 -266v-171z" />
    <glyph glyph-name="V" unicode="V" horiz-adv-x="852" 
d="M302 789c17 0 17 -22 0 -22h-88s22 -11 35 -43l234 -504c5 -11 10 -19 12 -37l129 279c65 142 68 220 62 305h-70c-16 0 -16 22 0 22h212c14 0 15 -22 0 -22h-35c-107 -257 -367 -793 -367 -793l-350 777c-8 16 -11 16 -28 16h-8c-16 0 -15 22 0 22h262z" />
    <glyph glyph-name="W" unicode="W" horiz-adv-x="1329" 
d="M558 751c-6 14 -11 16 -28 16h-8c-17 0 -16 22 0 22h261c17 0 17 -22 0 -22h-87s21 -6 39 -42l229 -505c5 -12 12 -19 12 -37l129 279c66 142 69 220 62 305h-69c-16 0 -16 22 0 22h212c13 0 14 -22 0 -22h-35c-108 -257 -367 -793 -367 -793l-235 520l-244 -520
l-350 777c-6 14 -12 16 -28 16h-8c-17 0 -16 22 0 22h261c17 0 17 -22 0 -22h-87s19 -9 33 -41l235 -506c5 -11 12 -19 12 -37l158 349z" />
    <glyph glyph-name="X" unicode="X" horiz-adv-x="806" 
d="M218 135l174 232l-238 382c-2 4 -15 18 -32 18h-13c-17 0 -16 22 0 22h267c17 0 17 -22 0 -22h-73s25 -16 33 -30l153 -242l54 70c71 92 88 125 96 202h-77c-15 0 -14 22 -1 22h212c16 0 15 -22 0 -22h-32c-15 -8 -26 -17 -50 -50l-186 -248l265 -425s11 -22 28 -22h13
c17 0 16 -22 0 -22h-267c-17 0 -17 22 0 22h73s-17 12 -28 31l-182 289l-96 -129c-41 -54 -83 -121 -104 -191h79c16 0 15 -22 1 -22h-212c-16 0 -14 22 0 22h33c27 18 68 55 110 113z" />
    <glyph glyph-name="Y" unicode="Y" horiz-adv-x="730" 
d="M462 79c0 -34 -1 -41 -11 -57h83c11 0 10 -22 0 -22h-270c-14 0 -10 22 0 22h14c35 0 31 39 31 59v310l-221 358s-15 18 -32 18h-13c-17 0 -16 22 0 22h267c17 0 17 -22 0 -22h-73s22 -13 33 -32l181 -293s51 88 70 126c56 114 51 156 51 199h-76c-16 0 -15 22 -1 22h212
c16 0 15 -22 0 -22h-32c-15 -8 -41 -57 -41 -57l-172 -306v-325z" />
    <glyph glyph-name="Z" unicode="Z" horiz-adv-x="761" 
d="M89 813c0 13 22 13 22 0v-24h654l-517 -767h211c83 0 245 24 291 119v52c0 11 22 14 22 0v-213c0 -11 -22 -10 -22 0v20h-703l493 726c18 27 39 41 39 41h-41h-140c-52 0 -235 -4 -287 -86v-81c0 -11 -22 -12 -22 0v213z" />
    <glyph glyph-name="bracketleft" unicode="[" horiz-adv-x="391" 
d="M321 883v-13h-122v-973h122v-14h-199v1000h199z" />
    <glyph glyph-name="backslash" unicode="\" horiz-adv-x="544" 
d="M539 -9h-88l-399 805h86z" />
    <glyph glyph-name="bracketright" unicode="]" horiz-adv-x="391" 
d="M321 883v-1000h-199v14h123v973h-123v13h199z" />
    <glyph glyph-name="asciicircum" unicode="^" horiz-adv-x="393" 
d="M176 654h75l124 -187h-42l-119 123l-119 -123h-42z" />
    <glyph glyph-name="underscore" unicode="_" horiz-adv-x="579" 
d="M668 -169h-601v39h601v-39z" />
    <glyph glyph-name="grave" unicode="`" horiz-adv-x="306" 
d="M300 467h-45l-84 59c-64 45 -110 67 -105 100c2 14 14 29 32 33c38 7 65 -29 122 -98z" />
    <glyph glyph-name="a" unicode="a" horiz-adv-x="501" 
d="M104 401c0 12 16 12 16 0v-14c71 16 216 38 283 -26c43 -40 41 -83 41 -169v-126c0 -36 6 -50 31 -39c15 7 19 9 41 29c9 9 17 -4 10 -12c-50 -53 -112 -62 -151 -44c-18 8 -32 20 -53 42c-54 -48 -133 -61 -187 -43c-44 16 -71 48 -81 94c-8 38 5 85 40 117
c40 36 136 72 224 5c0 108 3 143 -30 162c-18 10 -35 9 -59 5c-10 -3 -60 -18 -109 -103v-20c0 -10 -16 -10 -16 0v142zM185 62c7 -20 22 -37 46 -42c25 -4 52 7 69 24c21 20 18 35 18 58v88c-24 37 -72 37 -91 23c-49 -33 -53 -116 -42 -151z" />
    <glyph glyph-name="b" unicode="b" 
d="M249 309v-235c50 -58 103 -66 124 -62c33 7 52 36 59 67c9 42 30 208 -27 280c-20 25 -54 25 -74 19c-32 -7 -71 -40 -82 -69zM249 351c56 59 112 59 166 46c63 -14 115 -50 141 -127c16 -49 16 -144 -31 -205c-46 -59 -118 -77 -174 -73c-31 2 -70 17 -107 55
c-29 -55 -103 -47 -161 -47h-8c-11 0 -11 16 0 16h20c32 0 27 45 27 64v671c0 36 12 45 12 45h-71c-12 0 -10 15 0 15h224c14 0 14 -15 0 -15s-38 -5 -38 -44v-401z" />
    <glyph glyph-name="c" unicode="c" horiz-adv-x="416" 
d="M401 383v20c0 10 15 10 15 0v-177c0 -12 -15 -12 -15 0v56c-13 28 -43 69 -77 89c-23 14 -56 18 -79 7c-38 -19 -62 -77 -70 -120c-9 -50 -19 -175 52 -223c32 -23 85 -25 115 -14c27 9 49 23 72 47c7 7 19 -2 12 -10c-48 -60 -134 -77 -209 -60c-69 15 -128 59 -153 129
c-20 58 -20 136 35 201c60 72 154 82 217 73c22 -4 44 -6 85 -18z" />
    <glyph glyph-name="d" unicode="d" horiz-adv-x="562" 
d="M379 796h-70c-13 0 -10 15 0 15h224c14 0 14 -15 0 -15s-38 -5 -38 -44v-672c0 -19 -5 -64 27 -64h20c11 0 11 -16 0 -16h-8c-58 0 -132 -6 -160 49c-42 -41 -71 -53 -107 -57c-56 -5 -129 16 -175 75c-47 61 -47 154 -30 203c26 77 77 113 140 127c54 13 110 13 166 -46
v400c0 29 11 45 11 45zM286 378c-20 6 -54 6 -74 -19c-57 -72 -45 -240 -31 -277c10 -28 30 -61 64 -67c20 -5 74 3 123 61v233c-11 29 -49 62 -82 69z" />
    <glyph glyph-name="e" unicode="e" horiz-adv-x="455" 
d="M455 218h-274c-5 -44 -7 -139 48 -184c39 -33 141 -25 196 38c9 9 22 1 12 -11c-61 -69 -147 -80 -228 -62c-50 11 -118 44 -147 127c-20 58 -11 136 29 189c49 68 114 89 187 89c71 0 177 -34 177 -186zM230 375c-37 -27 -46 -99 -47 -134h158c2 60 -4 129 -53 142
c-21 5 -41 3 -58 -8z" />
    <glyph glyph-name="f" unicode="f" horiz-adv-x="316" 
d="M122 382h-57c-12 0 -11 15 0 15h57v146c0 112 8 204 93 250c54 30 118 25 182 -1v17c0 10 16 11 16 0v-152c0 -11 -16 -11 -16 0v46c-10 14 -47 64 -67 78c-17 12 -37 10 -47 5c-36 -24 -34 -65 -34 -166v-223h114c13 0 12 -15 0 -15h-114v-321c0 -34 -11 -45 -11 -45h71
c10 0 13 -16 0 -16h-225c-12 0 -11 16 0 16c29 0 38 12 38 43v323z" />
    <glyph glyph-name="g" unicode="g" horiz-adv-x="460" 
d="M453 452v-101c0 -9 -15 -8 -15 0v28c-13 16 -38 12 -50 -6c61 -48 74 -118 63 -172c-13 -67 -72 -107 -139 -125c-25 -6 -92 -13 -145 6c-30 -15 -40 -31 -42 -38c-4 -13 -7 -34 60 -34h60c105 0 158 -1 187 -40c19 -26 21 -62 9 -93c-16 -40 -62 -59 -98 -64
c-52 -9 -204 -12 -243 21c-19 16 -23 53 21 74c-32 13 -55 36 -57 66c-1 20 7 53 39 82c14 12 29 25 44 34c-64 38 -90 75 -94 137c-4 45 6 92 54 131c69 61 192 52 258 28c19 44 53 66 88 66zM132 -153c27 -29 173 -22 198 -19c29 4 55 12 63 26s1 24 -2 28
c-14 23 -103 19 -119 19h-35h-89c-28 -11 -31 -36 -16 -54zM183 241c-1 -79 11 -149 67 -149c70 0 71 72 71 150c0 79 -11 143 -70 143c-58 0 -67 -65 -68 -144z" />
    <glyph glyph-name="h" unicode="h" horiz-adv-x="588" 
d="M249 279v-218c0 -34 -11 -45 -11 -45h71c9 0 12 -16 0 -16h-225c-13 0 -13 16 0 16c17 0 38 4 38 43v692c0 34 12 45 12 45h-71c-14 0 -12 15 0 15h224c13 0 13 -15 0 -15c-23 0 -38 -5 -38 -44v-432c65 89 151 94 197 74c66 -28 75 -90 75 -180v-153
c0 -34 -11 -45 -11 -45h51c14 0 13 -16 0 -16h-205c-13 0 -10 16 0 16c18 0 38 4 38 43v237c0 56 -12 67 -25 70c-21 5 -61 5 -120 -87z" />
    <glyph glyph-name="i" unicode="i" horiz-adv-x="316" 
d="M257 533c-4 -40 -44 -71 -84 -66c-41 4 -70 45 -65 85c4 41 42 70 83 65c40 -4 71 -43 66 -84zM134 382h-71c-12 0 -10 15 0 15h224c14 0 14 -15 0 -15s-38 -5 -38 -44v-277c0 -34 -11 -45 -11 -45h71c10 0 13 -16 0 -16h-225c-12 0 -11 16 0 16c29 0 38 4 38 43v278
c0 26 12 45 12 45z" />
    <glyph glyph-name="j" unicode="j" horiz-adv-x="316" 
d="M257 533c-4 -40 -44 -71 -84 -66c-41 4 -70 45 -65 85c4 41 42 70 83 65c40 -4 71 -43 66 -84zM122 337c0 36 12 45 12 45h-71c-12 0 -10 15 0 15h224c14 0 14 -15 0 -15s-38 -5 -38 -44v-323c0 -34 1 -119 -85 -169c-39 -22 -98 -31 -136 -31c-17 -1 -10 14 0 16
c25 4 34 0 62 13c37 18 32 62 32 143v350z" />
    <glyph glyph-name="k" unicode="k" horiz-adv-x="567" 
d="M249 202l24 12c59 32 104 70 139 168h-63c-12 0 -10 15 0 15h204c13 0 10 -15 0 -15h-28c-77 -71 -167 -127 -167 -127c16 -9 27 -24 42 -46l105 -153c27 -39 40 -40 57 -40c10 0 13 -16 0 -16h-207c-14 0 -13 16 0 16h48c-6 3 -17 1 -35 30l-71 103
c-21 33 -30 37 -40 31c-9 -6 -8 -26 -8 -34v-85c0 -34 -11 -45 -11 -45h59c11 0 14 -16 0 -16h-213c-12 0 -11 16 0 16c29 0 38 4 38 43v692c0 34 12 45 12 45h-71c-12 0 -10 15 0 15h224c14 0 14 -15 0 -15s-38 -5 -38 -44v-550z" />
    <glyph glyph-name="l" unicode="l" horiz-adv-x="316" 
d="M249 61c0 -34 -11 -45 -11 -45h71c10 0 13 -16 0 -16h-225c-12 0 -11 16 0 16c29 0 38 4 38 43v692c0 34 12 45 12 45h-71c-12 0 -10 15 0 15h224c14 0 14 -15 0 -15s-38 -5 -38 -44v-691z" />
    <glyph glyph-name="m" unicode="m" horiz-adv-x="826" 
d="M759 61c0 -34 -12 -45 -12 -45h71c10 0 14 -16 0 -16h-224c-13 0 -12 16 0 16c29 0 38 4 38 43v188c0 69 2 105 -27 120c-9 4 -56 13 -100 -68v-238c0 -34 -11 -45 -11 -45h49c10 0 14 -16 0 -16h-203c-12 0 -11 16 0 16c29 0 38 4 38 43v188c0 69 0 111 -23 121
c-21 9 -68 5 -106 -74v-233c0 -34 -11 -45 -11 -45h54c10 0 13 -16 0 -16h-208c-12 0 -11 16 0 16c29 0 38 4 38 43v278c0 26 12 45 12 45h-71c-12 0 -10 15 0 15h209c13 0 13 -15 0 -15c-15 0 -23 6 -23 -33v-13c32 49 76 68 131 68c43 0 98 -12 125 -70
c56 85 148 82 202 48c39 -26 52 -79 52 -143v-178z" />
    <glyph glyph-name="n" unicode="n" horiz-adv-x="590" 
d="M523 256v-195c0 -36 -11 -45 -11 -45h70c11 0 14 -16 0 -16h-224c-12 0 -11 16 0 16c29 0 38 4 38 43v188c0 69 -1 107 -23 121c-19 12 -41 7 -59 -4c-29 -18 -58 -59 -65 -82v-221c0 -34 -11 -45 -11 -45h59c11 0 14 -16 0 -16h-213c-12 0 -11 16 0 16c29 0 38 4 38 43
v270c0 34 12 53 12 53h-71c-12 0 -10 15 0 15h209c13 0 13 -15 0 -15c-15 0 -23 -5 -23 -44v-14c33 54 76 79 131 80c48 1 143 -13 143 -148z" />
    <glyph glyph-name="o" unicode="o" horiz-adv-x="465" 
d="M258 -9c-113 5 -205 72 -206 207s79 206 206 206c115 0 208 -71 207 -206s-92 -207 -207 -207zM342 200c0 103 -19 185 -84 185c-78 0 -84 -82 -84 -185s1 -190 82 -190s86 87 86 190z" />
    <glyph glyph-name="p" unicode="p" horiz-adv-x="565" 
d="M249 73c50 -63 102 -58 125 -46c55 28 59 107 60 142c1 38 4 171 -48 205c-19 11 -50 11 -72 -1c-20 -12 -42 -25 -65 -59v-241zM249 -126c0 -33 -11 -45 -11 -45h71c10 0 13 -15 0 -15h-225c-12 0 -11 15 0 15c29 0 38 5 38 44v464c0 33 12 45 12 45h-71
c-12 0 -10 15 0 15h203c13 0 13 -15 0 -15s-17 1 -17 -31v-1c26 32 66 56 127 54c53 -1 121 -19 163 -89c29 -49 35 -150 8 -206c-34 -70 -91 -110 -158 -117c-52 -5 -105 11 -140 47v-165z" />
    <glyph glyph-name="q" unicode="q" horiz-adv-x="549" 
d="M366 314c-23 34 -45 47 -65 59c-22 12 -53 12 -72 1c-52 -34 -49 -165 -48 -202c1 -36 5 -117 60 -145c23 -12 75 -17 125 46v241zM493 -126c0 -33 -12 -45 -12 -45h71c10 0 14 -15 0 -15h-224c-13 0 -12 15 0 15c29 0 38 5 38 44v166c-35 -36 -88 -52 -140 -47
c-67 7 -124 47 -158 117c-26 56 -21 157 8 206c42 70 110 88 163 89c61 2 102 -30 127 -54v7c2 40 66 40 109 40h68c11 0 13 -15 0 -15c-28 0 -50 -15 -50 -77v-431z" />
    <glyph glyph-name="r" unicode="r" horiz-adv-x="384" 
d="M249 282v-221c0 -34 -11 -45 -11 -45h71c10 0 13 -16 0 -16h-225c-12 0 -11 16 0 16c29 0 38 4 38 43v278c0 29 12 45 12 45h-71c-12 0 -10 15 0 15h204c14 0 12 -15 -1 -15c-15 0 -17 -5 -17 -44v-10c18 39 84 110 139 84v-134c0 -11 -15 -13 -15 0v36
c-26 45 -82 63 -124 -32z" />
    <glyph glyph-name="s" unicode="s" horiz-adv-x="373" 
d="M312 382v15c0 9 16 10 16 0v-137c0 -10 -16 -9 -16 0v36c-25 46 -68 71 -108 80c-24 6 -64 7 -84 -13c-12 -13 -17 -29 -10 -45c6 -15 24 -33 95 -58l28 -10c67 -22 122 -36 136 -97c8 -33 1 -78 -26 -110c-40 -49 -131 -72 -279 -32v-13c0 -9 -15 -11 -16 0v159
c0 14 16 14 16 0v-45c27 -56 71 -85 119 -97c27 -7 86 -7 111 15c15 14 17 29 16 37c-1 13 -4 41 -99 64l-21 6c-62 17 -123 46 -136 111c-7 33 0 80 30 110c66 64 155 48 210 30z" />
    <glyph glyph-name="t" unicode="t" horiz-adv-x="316" 
d="M122 575h127v-178h110c11 0 11 -15 0 -15h-110v-225c0 -87 -3 -122 33 -135c26 -9 49 3 81 30c6 5 13 -5 7 -12c-33 -44 -116 -62 -170 -39c-86 38 -78 122 -78 206v175h-58c-11 0 -13 15 0 15h58v178z" />
    <glyph glyph-name="u" unicode="u" horiz-adv-x="593" 
d="M525 55c0 -20 6 -30 31 -19c14 7 19 12 30 21c4 5 9 -11 5 -15c-29 -36 -79 -43 -97 -42c-32 2 -62 9 -98 46c-67 -56 -145 -70 -210 -38c-67 32 -64 110 -64 174v155c0 26 12 45 12 45h-71c-12 0 -10 15 0 15h224c14 0 14 -15 0 -15s-38 -5 -38 -44v-215
c0 -67 1 -89 30 -103c9 -4 52 -8 119 51v266c0 26 12 45 12 45h-71c-12 0 -10 15 0 15h224c14 0 14 -15 0 -15s-38 -5 -38 -44v-283z" />
    <glyph glyph-name="v" unicode="v" horiz-adv-x="511" 
d="M274 397c11 0 11 -15 0 -15h-65c8 -8 20 -16 33 -46l76 -151c11 -21 13 -38 13 -38l21 43c32 63 57 122 44 192h-41c-10 0 -10 15 0 15h149c10 0 8 -15 0 -15h-20c-32 -42 -69 -104 -80 -128l-126 -265l-179 361c-14 23 -15 29 -46 32c-11 0 -11 15 0 15h221z" />
    <glyph glyph-name="w" unicode="w" horiz-adv-x="800" 
d="M414 282c-4 -8 -139 -293 -139 -293l-180 361c-12 26 -14 32 -46 32c-11 0 -11 15 0 15h221c12 0 12 -15 0 -15h-65c8 -8 19 -16 34 -46l75 -151c10 -20 14 -38 14 -38l75 158l-23 45c-13 23 -14 32 -46 32c-11 0 -11 15 0 15h222c11 0 11 -15 0 -15h-66
c8 -8 21 -16 34 -46l75 -151c12 -21 14 -38 14 -38l21 43c32 63 56 122 44 192h-42c-10 0 -10 15 0 15h150c10 0 7 -15 0 -15h-21c-31 -42 -68 -104 -79 -128l-126 -265z" />
    <glyph glyph-name="x" unicode="x" horiz-adv-x="502" 
d="M323 262c26 25 40 38 51 57c14 26 9 63 1 63h-33c-12 0 -13 15 0 15h153c11 0 10 -15 0 -15h-26c-41 -46 -132 -141 -132 -141l143 -225h28c13 0 14 -16 0 -16h-208c-13 0 -14 16 0 16h46c-13 8 -23 14 -35 35l-62 97c-26 -26 -45 -49 -51 -63c-7 -13 -12 -39 -2 -69h44
c10 0 13 -16 0 -16h-167c-12 0 -12 16 0 16c28 0 82 58 112 94l52 59l-106 172c-15 25 -23 41 -50 41c-11 0 -11 15 0 15h221c11 0 11 -15 0 -15h-60c20 -15 27 -26 40 -50z" />
    <glyph glyph-name="y" unicode="y" horiz-adv-x="490" 
d="M97 350c-9 23 -15 32 -46 32c-12 0 -12 15 0 15h221c11 0 11 -15 0 -15h-62c8 -8 18 -11 34 -46l57 -122c17 -38 21 -79 21 -79l30 67c26 60 50 122 36 180h-42c-10 0 -12 15 0 15h139c10 0 9 -15 0 -15h-8c-19 -18 -57 -94 -68 -119l-145 -314
c-62 -134 -154 -123 -176 -123v137c0 13 15 10 15 0v-48c22 -15 46 -34 77 -24c33 11 70 83 80 108z" />
    <glyph glyph-name="z" unicode="z" horiz-adv-x="485" 
d="M77 410c0 12 16 11 16 0v-13h372l-247 -381c67 -1 104 1 138 9c33 8 70 40 87 67v46c0 11 16 14 16 0v-149c0 -11 -16 -11 -16 0v11h-387l229 349c15 24 28 30 34 33c-95 0 -159 9 -226 -83v-34c0 -11 -16 -11 -16 0v145z" />
    <glyph glyph-name="braceleft" unicode="{" horiz-adv-x="630" 
d="M560 811v-39c-127 -22 -166 -58 -166 -184v-68c0 -165 -138 -200 -222 -223c96 -21 219 -67 219 -231v-51c0 -73 -8 -127 77 -170c26 -12 63 -20 92 -22v-40c-58 0 -168 17 -217 67c-50 51 -47 119 -47 171v63c0 46 4 116 -60 156c-31 20 -76 29 -114 33v52
c118 15 178 43 178 177v73c0 68 -3 148 84 199c45 26 126 37 176 37z" />
    <glyph glyph-name="bar" unicode="|" horiz-adv-x="135" 
d="M121 -120h-49v931h49v-931z" />
    <glyph glyph-name="braceright" unicode="}" horiz-adv-x="630" 
d="M299 774c86 -51 84 -131 84 -199v-73c0 -134 59 -162 177 -177v-52c-38 -4 -83 -13 -113 -33c-64 -40 -61 -110 -61 -156v-63c0 -52 3 -120 -47 -171c-48 -50 -158 -67 -217 -67v40c30 2 67 10 92 22c86 43 78 97 78 170v51c0 164 122 210 219 231
c-85 23 -223 58 -223 223v68c0 126 -39 162 -166 184v39c51 0 132 -11 177 -37z" />
    <glyph glyph-name="asciitilde" unicode="~" horiz-adv-x="412" 
d="M366 593h30c-9 -31 -29 -104 -76 -118c-50 -16 -92 20 -153 42c-20 8 -39 7 -53 -5c-9 -8 -14 -16 -26 -45h-32c11 46 27 107 81 120c61 16 89 -37 158 -51c20 -3 38 0 53 20c8 9 13 28 18 37z" />
    <glyph glyph-name="Adieresis" unicode="&#xc4;" horiz-adv-x="836" 
d="M440 826l346 -765c7 -21 18 -39 40 -39c15 0 16 -21 0 -22h-256c-14 0 -12 22 0 22h81s-18 12 -31 37l-100 220h-289c-39 -103 -51 -196 -42 -257h61c15 0 18 -23 0 -22h-201c-15 -1 -12 21 0 22h10c17 0 33 20 49 54zM240 304h267s-127 283 -131 310zM402 944
c-1 -33 -29 -58 -62 -57c-32 1 -58 29 -57 61c1 33 29 59 62 58c32 -2 58 -30 57 -62zM607 944c-1 -33 -29 -58 -62 -57c-32 1 -58 29 -57 61c1 33 29 59 62 58c32 -2 58 -30 57 -62z" />
    <glyph glyph-name="Aring" unicode="&#xc5;" horiz-adv-x="836" 
d="M440 826l346 -765c7 -21 18 -39 40 -39c15 0 16 -21 0 -22h-256c-14 0 -12 22 0 22h81s-18 12 -31 37l-100 220h-289c-39 -103 -51 -196 -42 -257h61c15 0 18 -23 0 -22h-201c-15 -1 -12 21 0 22h10c17 0 33 20 49 54zM240 304h267s-127 283 -131 310zM440 1070
c-38 2 -72 -26 -74 -64c-2 -39 25 -73 63 -76c38 -2 73 26 75 64c2 39 -26 73 -64 76zM545 983c-7 -62 -65 -103 -126 -95c-62 8 -104 66 -96 128c8 61 65 102 127 94s103 -65 95 -127z" />
    <glyph glyph-name="Ccedilla" unicode="&#xc7;" horiz-adv-x="759" 
d="M462 -70c34 2 88 2 117 -34c15 -18 23 -41 16 -65c-8 -32 -27 -51 -62 -66c-58 -27 -145 -20 -212 11c-15 11 6 49 25 38c33 -16 97 -27 129 -9c18 10 24 22 27 39c2 22 -16 42 -40 45c-22 3 -43 -2 -65 -10c-8 -5 -19 8 -13 16l65 88c-66 0 -134 21 -191 55
c-123 74 -191 224 -197 329c-8 117 37 263 158 358c142 112 334 83 480 45l29 -8v25c0 12 23 12 23 0v-263c0 -11 -23 -12 -23 0v108c-39 57 -80 90 -121 115c-60 36 -170 51 -240 9c-112 -67 -143 -257 -143 -314c0 -85 4 -299 141 -394c78 -54 182 -40 252 -1
c51 28 99 71 138 127c12 17 31 -6 24 -20c-37 -59 -108 -120 -166 -145c-36 -15 -75 -26 -117 -26z" />
    <glyph glyph-name="Eacute" unicode="&#xc9;" horiz-adv-x="669" 
d="M77 0c-13 0 -10 22 0 22h15c35 0 30 39 30 59v629c0 34 1 41 12 57h-83c-13 0 -12 22 0 22h571v25c0 10 22 12 22 0v-200c0 -16 -22 -15 -22 0v68c-50 46 -84 69 -157 80c-36 6 -151 6 -163 3c-29 -4 -26 -21 -26 -123v-186h6c106 0 194 6 214 42v47c0 14 21 16 23 0
v-251c0 -12 -23 -11 -23 0v86c-45 50 -92 52 -220 52v-351c0 -39 -6 -47 -11 -59h91c45 0 102 2 150 14c60 15 130 44 152 89v73c0 14 21 15 22 0v-224c0 -9 -22 -9 -22 1v25h-581zM282 887h-46l78 89c38 44 77 107 125 100c17 -2 28 -14 31 -32c5 -34 -48 -64 -103 -100z
" />
    <glyph glyph-name="Ntilde" unicode="&#xd1;" horiz-adv-x="816" 
d="M746 -30l-572 701v-301c9 -189 28 -307 2 -348h98c18 0 19 -22 0 -22h-229c-14 0 -15 22 0 22h37c47 68 52 185 52 266v428l-35 51h-57c-17 1 -18 22 0 22h290c17 0 16 -22 0 -22h-53l427 -522v174c-7 190 -18 309 -2 348h-70c-18 0 -19 22 0 22h185c14 0 15 -22 0 -22
h-21c-37 -43 -52 -185 -52 -266v-531zM559 1012h30c-9 -30 -29 -103 -76 -117c-49 -16 -92 20 -153 42c-20 8 -39 7 -52 -5c-9 -8 -15 -16 -27 -45h-32c11 46 27 106 81 120c61 15 89 -37 158 -51c20 -3 38 0 53 19c8 9 13 28 18 37z" />
    <glyph glyph-name="Odieresis" unicode="&#xd6;" horiz-adv-x="880" 
d="M226 404c1 -212 79 -395 242 -395c194 0 241 183 242 395c2 190 -69 374 -243 374c-173 0 -243 -184 -241 -374zM872 389c-2 -239 -182 -407 -407 -407c-234 0 -403 168 -406 407c-2 224 158 416 407 416c249 -1 408 -192 406 -416zM426 944c-1 -33 -29 -58 -61 -57
c-33 1 -59 29 -57 61c1 33 29 59 61 58c33 -2 59 -30 57 -62zM632 944c-1 -33 -29 -58 -62 -57c-32 1 -58 29 -57 61c1 33 29 59 62 58c32 -2 58 -30 57 -62z" />
    <glyph glyph-name="Udieresis" unicode="&#xdc;" horiz-adv-x="852" 
d="M782 330c0 -109 -18 -237 -162 -315c-105 -57 -272 -32 -345 13c-137 82 -153 209 -153 326v356c0 34 1 41 12 57h-83c-13 0 -12 22 0 22h270c11 0 12 -22 -1 -22h-14c-34 0 -30 -37 -30 -58v-341c0 -172 0 -275 106 -334c64 -37 167 -26 233 13c139 82 130 226 130 292
v80c-7 190 -30 313 -27 348h-70c-18 0 -18 22 1 22h194c13 0 14 -22 0 -22h-32c-18 -31 -29 -185 -29 -266v-171zM424 944c-1 -33 -29 -58 -61 -57c-33 1 -59 29 -58 61c1 33 29 59 62 58c33 -2 58 -30 57 -62zM630 944c-1 -33 -30 -58 -62 -57c-33 1 -58 29 -57 61
c1 33 29 59 61 58c33 -2 59 -30 58 -62z" />
    <glyph glyph-name="aacute" unicode="&#xe1;" horiz-adv-x="501" 
d="M104 401c0 12 16 12 16 0v-14c71 16 216 38 283 -26c43 -40 41 -83 41 -169v-126c0 -36 6 -50 31 -39c15 7 19 9 41 29c9 9 17 -4 10 -12c-50 -53 -112 -62 -151 -44c-18 8 -32 20 -53 42c-54 -48 -133 -61 -187 -43c-44 16 -71 48 -81 94c-8 38 5 85 40 117
c40 36 136 72 224 5c0 108 3 143 -30 162c-18 10 -35 9 -59 5c-10 -3 -60 -18 -109 -103v-20c0 -10 -16 -10 -16 0v142zM185 62c7 -20 22 -37 46 -42c25 -4 52 7 69 24c21 20 18 35 18 58v88c-24 37 -72 37 -91 23c-49 -33 -53 -116 -42 -151zM173 467h-46l78 90
c39 43 77 106 125 100c17 -3 28 -15 31 -33c5 -34 -48 -64 -103 -100z" />
    <glyph glyph-name="agrave" unicode="&#xe0;" horiz-adv-x="501" 
d="M104 401c0 12 16 12 16 0v-14c71 16 216 38 283 -26c43 -40 41 -83 41 -169v-126c0 -36 6 -50 31 -39c15 7 19 9 41 29c9 9 17 -4 10 -12c-50 -53 -112 -62 -151 -44c-18 8 -32 20 -53 42c-54 -48 -133 -61 -187 -43c-44 16 -71 48 -81 94c-8 38 5 85 40 117
c40 36 136 72 224 5c0 108 3 143 -30 162c-18 10 -35 9 -59 5c-10 -3 -60 -18 -109 -103v-20c0 -10 -16 -10 -16 0v142zM185 62c7 -20 22 -37 46 -42c25 -4 52 7 69 24c21 20 18 35 18 58v88c-24 37 -72 37 -91 23c-49 -33 -53 -116 -42 -151zM375 467h-45l-84 59
c-64 45 -110 67 -105 100c3 14 14 29 32 33c38 7 65 -29 122 -98z" />
    <glyph glyph-name="acircumflex" unicode="&#xe2;" horiz-adv-x="501" 
d="M104 401c0 12 16 12 16 0v-14c71 16 216 38 283 -26c43 -40 41 -83 41 -169v-126c0 -36 6 -50 31 -39c15 7 19 9 41 29c9 9 17 -4 10 -12c-50 -53 -112 -62 -151 -44c-18 8 -32 20 -53 42c-54 -48 -133 -61 -187 -43c-44 16 -71 48 -81 94c-8 38 5 85 40 117
c40 36 136 72 224 5c0 108 3 143 -30 162c-18 10 -35 9 -59 5c-10 -3 -60 -18 -109 -103v-20c0 -10 -16 -10 -16 0v142zM185 62c7 -20 22 -37 46 -42c25 -4 52 7 69 24c21 20 18 35 18 58v88c-24 37 -72 37 -91 23c-49 -33 -53 -116 -42 -151zM227 654h75l123 -187h-41
l-119 123l-119 -123h-43z" />
    <glyph glyph-name="adieresis" unicode="&#xe4;" horiz-adv-x="501" 
d="M104 401c0 12 16 12 16 0v-14c71 16 216 38 283 -26c43 -40 41 -83 41 -169v-126c0 -36 6 -50 31 -39c15 7 19 9 41 29c9 9 17 -4 10 -12c-50 -53 -112 -62 -151 -44c-18 8 -32 20 -53 42c-54 -48 -133 -61 -187 -43c-44 16 -71 48 -81 94c-8 38 5 85 40 117
c40 36 136 72 224 5c0 108 3 143 -30 162c-18 10 -35 9 -59 5c-10 -3 -60 -18 -109 -103v-20c0 -10 -16 -10 -16 0v142zM185 62c7 -20 22 -37 46 -42c25 -4 52 7 69 24c21 20 18 35 18 58v88c-24 37 -72 37 -91 23c-49 -33 -53 -116 -42 -151zM236 524
c-1 -32 -29 -58 -62 -57s-58 29 -57 62c1 32 29 58 61 57c33 -1 59 -29 58 -62zM441 524c-1 -32 -29 -58 -62 -57c-32 1 -58 29 -57 62c1 32 29 58 62 57c32 -1 58 -29 57 -62z" />
    <glyph glyph-name="atilde" unicode="&#xe3;" horiz-adv-x="501" 
d="M104 401c0 12 16 12 16 0v-14c71 16 216 38 283 -26c43 -40 41 -83 41 -169v-126c0 -36 6 -50 31 -39c15 7 19 9 41 29c9 9 17 -4 10 -12c-50 -53 -112 -62 -151 -44c-18 8 -32 20 -53 42c-54 -48 -133 -61 -187 -43c-44 16 -71 48 -81 94c-8 38 5 85 40 117
c40 36 136 72 224 5c0 108 3 143 -30 162c-18 10 -35 9 -59 5c-10 -3 -60 -18 -109 -103v-20c0 -10 -16 -10 -16 0v142zM185 62c7 -20 22 -37 46 -42c25 -4 52 7 69 24c21 20 18 35 18 58v88c-24 37 -72 37 -91 23c-49 -33 -53 -116 -42 -151zM413 593h30
c-9 -31 -29 -104 -76 -118c-49 -16 -92 20 -153 42c-20 8 -39 7 -52 -5c-9 -8 -15 -16 -27 -45h-32c11 46 27 107 81 120c61 16 89 -37 158 -51c21 -3 38 0 53 20c8 9 14 28 18 37z" />
    <glyph glyph-name="aring" unicode="&#xe5;" horiz-adv-x="501" 
d="M104 401c0 12 16 12 16 0v-14c71 16 216 38 283 -26c43 -40 41 -83 41 -169v-126c0 -36 6 -50 31 -39c15 7 19 9 41 29c9 9 17 -4 10 -12c-50 -53 -112 -62 -151 -44c-18 8 -32 20 -53 42c-54 -48 -133 -61 -187 -43c-44 16 -71 48 -81 94c-8 38 5 85 40 117
c40 36 136 72 224 5c0 108 3 143 -30 162c-18 10 -35 9 -59 5c-10 -3 -60 -18 -109 -103v-20c0 -10 -16 -10 -16 0v142zM185 62c7 -20 22 -37 46 -42c25 -4 52 7 69 24c21 20 18 35 18 58v88c-24 37 -72 37 -91 23c-49 -33 -53 -116 -42 -151zM295 650
c-38 2 -72 -26 -74 -64s25 -73 63 -75c38 -3 73 25 75 64c2 38 -26 73 -64 75zM401 563c-8 -61 -65 -103 -127 -95s-103 66 -96 128c8 62 66 102 127 94c62 -8 104 -65 96 -127z" />
    <glyph glyph-name="ccedilla" unicode="&#xe7;" horiz-adv-x="416" 
d="M254 -70c33 2 87 2 116 -34c15 -18 23 -41 16 -65c-8 -32 -27 -51 -62 -66c-58 -27 -144 -20 -212 11c-14 11 6 49 25 38c34 -16 98 -27 129 -9c18 10 25 22 27 39c2 22 -16 42 -39 45s-44 -2 -65 -10c-8 -5 -20 8 -14 16l72 98c-10 0 -20 5 -30 5
c-69 15 -128 59 -153 129c-20 58 -20 136 35 201c60 72 154 82 217 73c22 0 44 -6 85 -18v20c0 10 15 10 15 0v-177c0 -12 -15 -12 -15 0v56c-13 28 -43 69 -77 89c-23 14 -56 18 -79 7c-38 -19 -62 -77 -70 -120c-9 -50 -19 -175 52 -223c32 -23 85 -25 115 -14
c27 9 49 23 72 47c7 7 19 -2 12 -10c-32 -40 -80 -61 -133 -66z" />
    <glyph glyph-name="eacute" unicode="&#xe9;" horiz-adv-x="455" 
d="M455 218h-274c-5 -44 -7 -139 48 -184c39 -33 141 -25 196 38c9 9 22 1 12 -11c-61 -69 -147 -80 -228 -62c-50 11 -118 44 -147 127c-20 58 -11 136 29 189c49 68 114 89 187 89c71 0 177 -34 177 -186zM230 375c-37 -27 -46 -99 -47 -134h158c2 60 -4 129 -53 142
c-21 5 -41 3 -58 -8zM163 467h-46l78 90c38 43 77 106 125 100c17 -3 28 -15 31 -33c5 -34 -48 -64 -103 -100z" />
    <glyph glyph-name="egrave" unicode="&#xe8;" horiz-adv-x="455" 
d="M455 218h-274c-5 -44 -7 -139 48 -184c39 -33 141 -25 196 38c9 9 22 1 12 -11c-61 -69 -147 -80 -228 -62c-50 11 -118 44 -147 127c-20 58 -11 136 29 189c49 68 114 89 187 89c71 0 177 -34 177 -186zM230 375c-37 -27 -46 -99 -47 -134h158c2 60 -4 129 -53 142
c-21 5 -41 3 -58 -8zM403 467h-45l-84 59c-64 45 -110 67 -105 100c3 14 14 29 32 33c38 7 65 -29 122 -98z" />
    <glyph glyph-name="ecircumflex" unicode="&#xea;" horiz-adv-x="455" 
d="M455 218h-274c-5 -44 -7 -139 48 -184c39 -33 141 -25 196 38c9 9 22 1 12 -11c-61 -69 -147 -80 -228 -62c-50 11 -118 44 -147 127c-20 58 -11 136 29 189c49 68 114 89 187 89c71 0 177 -34 177 -186zM230 375c-37 -27 -46 -99 -47 -134h158c2 60 -4 129 -53 142
c-21 5 -41 3 -58 -8zM229 654h75l124 -187h-42l-119 123l-119 -123h-43z" />
    <glyph glyph-name="edieresis" unicode="&#xeb;" horiz-adv-x="455" 
d="M455 218h-274c-5 -44 -7 -139 48 -184c39 -33 141 -25 196 38c9 9 22 1 12 -11c-61 -69 -147 -80 -228 -62c-50 11 -118 44 -147 127c-20 58 -11 136 29 189c49 68 114 89 187 89c71 0 177 -34 177 -186zM230 375c-37 -27 -46 -99 -47 -134h158c2 60 -4 129 -53 142
c-21 5 -41 3 -58 -8zM235 524c-2 -32 -30 -58 -62 -57c-33 1 -59 29 -57 62c1 32 29 58 61 57c33 -1 59 -29 58 -62zM440 524c-1 -32 -29 -58 -62 -57c-32 1 -58 29 -57 62c1 32 29 58 62 57c32 -1 58 -29 57 -62z" />
    <glyph glyph-name="iacute" unicode="&#xed;" horiz-adv-x="316" 
d="M134 382h-71c-12 0 -10 15 0 15h224c14 0 14 -15 0 -15s-38 -5 -38 -44v-277c0 -34 -11 -45 -11 -45h71c10 0 13 -16 0 -16h-225c-12 0 -11 16 0 16c29 0 38 4 38 43v278c0 26 12 45 12 45zM86 467h-46l79 90c38 43 76 106 125 100c16 -3 28 -15 31 -33
c4 -34 -48 -64 -103 -100z" />
    <glyph glyph-name="igrave" unicode="&#xec;" horiz-adv-x="316" 
d="M134 382h-71c-12 0 -10 15 0 15h224c14 0 14 -15 0 -15s-38 -5 -38 -44v-277c0 -34 -11 -45 -11 -45h71c10 0 13 -16 0 -16h-225c-12 0 -11 16 0 16c29 0 38 4 38 43v278c0 26 12 45 12 45zM288 466h-44l-85 59c-64 45 -110 66 -104 100c2 14 13 29 31 33
c39 6 66 -29 123 -98z" />
    <glyph glyph-name="icircumflex" unicode="&#xee;" horiz-adv-x="316" 
d="M134 382h-71c-12 0 -10 15 0 15h224c14 0 14 -15 0 -15s-38 -5 -38 -44v-277c0 -34 -11 -45 -11 -45h71c10 0 13 -16 0 -16h-225c-12 0 -11 16 0 16c29 0 38 4 38 43v278c0 26 12 45 12 45zM155 654h75l124 -187h-42l-119 123l-119 -123h-43z" />
    <glyph glyph-name="idieresis" unicode="&#xef;" horiz-adv-x="316" 
d="M134 382h-71c-12 0 -10 15 0 15h224c14 0 14 -15 0 -15s-38 -5 -38 -44v-277c0 -34 -11 -45 -11 -45h71c10 0 13 -16 0 -16h-225c-12 0 -11 16 0 16c29 0 38 4 38 43v278c0 26 12 45 12 45zM141 524c-1 -32 -29 -58 -61 -57c-33 1 -59 29 -58 62c2 32 30 58 62 57
c33 -1 59 -29 57 -62zM347 524c-1 -32 -29 -58 -62 -57c-32 1 -58 29 -57 62c1 32 29 58 62 57c32 -1 58 -29 57 -62z" />
    <glyph glyph-name="ntilde" unicode="&#xf1;" horiz-adv-x="590" 
d="M523 256v-195c0 -36 -11 -45 -11 -45h70c11 0 14 -16 0 -16h-224c-12 0 -11 16 0 16c29 0 38 4 38 43v188c0 69 -1 107 -23 121c-19 12 -41 7 -59 -4c-29 -18 -58 -59 -65 -82v-221c0 -34 -11 -45 -11 -45h59c11 0 14 -16 0 -16h-213c-12 0 -11 16 0 16c29 0 38 4 38 43
v270c0 34 12 53 12 53h-71c-12 0 -10 15 0 15h209c13 0 13 -15 0 -15c-15 0 -23 -5 -23 -44v-14c33 54 76 79 131 80c48 1 143 -13 143 -148zM453 593h31c-9 -31 -29 -104 -77 -118c-49 -16 -92 20 -152 42c-20 8 -40 7 -53 -5c-9 -8 -15 -16 -27 -45h-31
c11 46 27 107 80 120c61 16 89 -37 159 -51c20 -3 38 0 52 20c8 9 14 28 18 37z" />
    <glyph glyph-name="oacute" unicode="&#xf3;" horiz-adv-x="465" 
d="M258 -9c-113 5 -205 72 -206 207s79 206 206 206c115 0 208 -71 207 -206s-92 -207 -207 -207zM342 200c0 103 -19 185 -84 185c-78 0 -84 -82 -84 -185s1 -190 82 -190s86 87 86 190zM165 467h-46l79 90c38 43 76 106 124 100c17 -3 28 -15 32 -33
c4 -34 -49 -64 -104 -100z" />
    <glyph glyph-name="ograve" unicode="&#xf2;" horiz-adv-x="465" 
d="M258 -9c-113 5 -205 72 -206 207s79 206 206 206c115 0 208 -71 207 -206s-92 -207 -207 -207zM342 200c0 103 -19 185 -84 185c-78 0 -84 -82 -84 -185s1 -190 82 -190s86 87 86 190zM386 467h-45l-84 59c-64 45 -110 67 -104 100c2 14 13 29 31 33c38 7 65 -29 122 -98
z" />
    <glyph glyph-name="ocircumflex" unicode="&#xf4;" horiz-adv-x="465" 
d="M258 -9c-113 5 -205 72 -206 207s79 206 206 206c115 0 208 -71 207 -206s-92 -207 -207 -207zM342 200c0 103 -19 185 -84 185c-78 0 -84 -82 -84 -185s1 -190 82 -190s86 87 86 190zM233 654h76l123 -187h-41l-119 123l-119 -123h-43z" />
    <glyph glyph-name="odieresis" unicode="&#xf6;" horiz-adv-x="465" 
d="M258 -9c-113 5 -205 72 -206 207s79 206 206 206c115 0 208 -71 207 -206s-92 -207 -207 -207zM342 200c0 103 -19 185 -84 185c-78 0 -84 -82 -84 -185s1 -190 82 -190s86 87 86 190zM217 524c-2 -32 -30 -58 -62 -57c-33 1 -58 29 -57 62c1 32 29 58 61 57
c33 -1 59 -29 58 -62zM422 524c-1 -32 -29 -58 -62 -57c-32 1 -58 29 -57 62c1 32 29 58 62 57c32 -1 58 -29 57 -62z" />
    <glyph glyph-name="otilde" unicode="&#xf5;" horiz-adv-x="465" 
d="M258 -9c-113 5 -205 72 -206 207s79 206 206 206c115 0 208 -71 207 -206s-92 -207 -207 -207zM342 200c0 103 -19 185 -84 185c-78 0 -84 -82 -84 -185s1 -190 82 -190s86 87 86 190zM396 593h30c-8 -31 -29 -104 -76 -118c-49 -16 -92 20 -152 42c-21 8 -40 7 -53 -5
c-9 -8 -15 -16 -27 -45h-32c12 46 27 107 81 120c61 16 89 -37 158 -51c21 -3 39 0 53 20c8 9 14 28 18 37z" />
    <glyph glyph-name="uacute" unicode="&#xfa;" horiz-adv-x="593" 
d="M525 55c0 -20 6 -30 31 -19c14 7 19 12 30 21c4 5 9 -11 5 -15c-29 -36 -79 -43 -97 -42c-32 2 -62 9 -98 46c-67 -56 -145 -70 -210 -38c-67 32 -64 110 -64 174v155c0 26 12 45 12 45h-71c-12 0 -10 15 0 15h224c14 0 14 -15 0 -15s-38 -5 -38 -44v-215
c0 -67 1 -89 30 -103c9 -4 52 -8 119 51v266c0 26 12 45 12 45h-71c-12 0 -10 15 0 15h224c14 0 14 -15 0 -15s-38 -5 -38 -44v-283zM242 467h-46l79 90c38 43 76 106 125 100c16 -3 28 -15 31 -33c4 -34 -48 -64 -103 -100z" />
    <glyph glyph-name="ugrave" unicode="&#xf9;" horiz-adv-x="593" 
d="M525 55c0 -20 6 -30 31 -19c14 7 19 12 30 21c4 5 9 -11 5 -15c-29 -36 -79 -43 -97 -42c-32 2 -62 9 -98 46c-67 -56 -145 -70 -210 -38c-67 32 -64 110 -64 174v155c0 26 12 45 12 45h-71c-12 0 -10 15 0 15h224c14 0 14 -15 0 -15s-38 -5 -38 -44v-215
c0 -67 1 -89 30 -103c9 -4 52 -8 119 51v266c0 26 12 45 12 45h-71c-12 0 -10 15 0 15h224c14 0 14 -15 0 -15s-38 -5 -38 -44v-283zM451 467h-45l-84 59c-64 45 -110 67 -104 100c2 14 13 29 31 33c38 7 65 -29 122 -98z" />
    <glyph glyph-name="ucircumflex" unicode="&#xfb;" horiz-adv-x="593" 
d="M525 55c0 -20 6 -30 31 -19c14 7 19 12 30 21c4 5 9 -11 5 -15c-29 -36 -79 -43 -97 -42c-32 2 -62 9 -98 46c-67 -56 -145 -70 -210 -38c-67 32 -64 110 -64 174v155c0 26 12 45 12 45h-71c-12 0 -10 15 0 15h224c14 0 14 -15 0 -15s-38 -5 -38 -44v-215
c0 -67 1 -89 30 -103c9 -4 52 -8 119 51v266c0 26 12 45 12 45h-71c-12 0 -10 15 0 15h224c14 0 14 -15 0 -15s-38 -5 -38 -44v-283zM283 654h75l123 -187h-41l-119 123l-119 -123h-43z" />
    <glyph glyph-name="udieresis" unicode="&#xfc;" horiz-adv-x="593" 
d="M525 55c0 -20 6 -30 31 -19c14 7 19 12 30 21c4 5 9 -11 5 -15c-29 -36 -79 -43 -97 -42c-32 2 -62 9 -98 46c-67 -56 -145 -70 -210 -38c-67 32 -64 110 -64 174v155c0 26 12 45 12 45h-71c-12 0 -10 15 0 15h224c14 0 14 -15 0 -15s-38 -5 -38 -44v-215
c0 -67 1 -89 30 -103c9 -4 52 -8 119 51v266c0 26 12 45 12 45h-71c-12 0 -10 15 0 15h224c14 0 14 -15 0 -15s-38 -5 -38 -44v-283zM279 524c-1 -32 -29 -58 -61 -57c-33 1 -59 29 -58 62c2 32 30 58 62 57c33 -1 59 -29 57 -62zM485 524c-1 -32 -29 -58 -62 -57
c-32 1 -58 29 -57 62c1 32 29 58 62 57c32 -1 58 -29 57 -62z" />
    <glyph glyph-name="cent" unicode="&#xa2;" horiz-adv-x="790" 
d="M457 699v-136c32 0 247 -10 301 -95c9 -13 12 -33 4 -48c-16 -33 -50 -41 -84 -45c-34 -5 -74 1 -98 23c-13 13 -18 33 -11 43c17 26 33 24 37 40c3 12 -13 24 -24 27c-76 26 -177 17 -232 -6c-72 -32 -106 -74 -117 -142c-7 -46 -3 -142 52 -192c75 -68 221 -68 300 -47
c82 23 121 66 143 100c14 23 60 0 55 -17c-71 -116 -240 -142 -327 -142v-162c0 -29 -47 -29 -45 0v165c-91 2 -265 35 -332 143c-32 50 -35 112 -12 163c61 131 233 178 345 191v132c0 39 45 34 45 5z" />
    <glyph glyph-name="sterling" unicode="&#xa3;" horiz-adv-x="703" 
d="M557 392h-146c1 -84 -7 -166 -29 -242c38 -11 80 -42 137 -43c111 -3 118 56 136 100h26c0 -16 0 -154 -91 -207c-42 -25 -119 -24 -157 -8c-33 12 -75 50 -101 72c-11 -18 -21 -56 -81 -74c-44 -14 -96 -16 -137 6c-60 31 -56 97 -39 123c25 38 57 59 99 66
c56 8 85 -2 116 -8c-9 63 -31 162 -58 215h-135v26h129c-16 34 -43 113 -40 168c5 53 32 115 76 155c62 51 171 76 272 54c63 -15 102 -55 117 -87c10 -20 21 -74 -21 -106c-33 -26 -90 -26 -114 -13c-28 16 -46 43 -39 69c10 40 42 33 42 55c0 45 -32 78 -107 67
c-71 -10 -79 -88 -65 -131c22 -69 55 -162 64 -231h146v-26zM144 126c-35 -22 -50 -65 -15 -98c19 -18 67 -22 98 -4c32 16 49 48 55 76c-42 39 -101 48 -138 26z" />
    <glyph glyph-name="bullet" unicode="&#x2022;" horiz-adv-x="229" 
d="M221 312c-1 -43 -37 -76 -80 -75c-42 1 -75 37 -74 79c1 43 36 77 79 76s76 -37 75 -80z" />
    <glyph glyph-name="acute" unicode="&#xb4;" horiz-adv-x="306" 
d="M92 467h-46l79 90c38 43 76 106 124 100c17 -3 28 -15 32 -33c4 -34 -49 -64 -104 -100z" />
    <glyph glyph-name="dieresis" unicode="&#xa8;" horiz-adv-x="395" 
d="M178 524c-1 -32 -29 -58 -61 -57c-33 1 -59 29 -58 62c2 32 30 58 62 57c33 -1 59 -29 57 -62zM384 524c-1 -32 -29 -58 -62 -57c-32 1 -58 29 -57 62c1 32 29 58 62 57c32 -1 58 -29 57 -62z" />
    <glyph glyph-name="infinity" unicode="&#x221e;" horiz-adv-x="490" 
d="M99 350c-9 23 -15 32 -46 32c-11 0 -11 15 0 15h221c11 0 11 -15 0 -15h-62c8 -8 18 -11 34 -46l57 -122c17 -38 21 -79 21 -79l31 67c25 60 49 122 36 180h-43c-10 0 -11 15 0 15h139c10 0 9 -15 0 -15h-8c-19 -18 -57 -94 -68 -119l-145 -314
c-62 -134 -154 -123 -176 -123v137c0 13 15 10 15 0v-48c22 -15 47 -34 77 -24c33 11 71 83 81 108zM190 489h-46l78 90c38 44 77 107 125 100c17 -2 28 -15 31 -33c5 -33 -48 -64 -103 -99z" />
    <glyph glyph-name="florin" unicode="&#x192;" horiz-adv-x="608" 
d="M249 382v-321c0 -34 -11 -45 -11 -45h71c10 0 13 -16 0 -16h-225c-12 0 -11 16 0 16c29 0 38 12 38 43v323h-57c-12 0 -11 15 0 15h57v146c0 112 8 204 93 250c54 30 118 25 182 -1v17c0 10 16 11 16 0v-152c0 -11 -16 -11 -16 0v46c-10 14 -47 64 -67 78
c-17 12 -37 10 -47 5c-36 -24 -34 -65 -34 -166v-223h165v146c0 112 8 204 93 250c54 30 118 25 182 -1v17c0 10 16 11 16 0v-152c0 -11 -16 -11 -16 0v46c-10 14 -47 64 -67 78c-17 12 -37 10 -47 5c-36 -24 -34 -65 -34 -166v-223h113c14 0 13 -15 0 -15h-113v-321
c0 -34 -11 -45 -11 -45h70c11 0 14 -16 0 -16h-224c-12 0 -11 16 0 16c29 0 38 12 38 43v323h-165z" />
    <glyph glyph-name="guillemotleft" unicode="&#xab;" horiz-adv-x="397" 
d="M255 404l-163 -205l147 -193c6 -8 -31 -18 -41 -3l-149 191l163 210c14 17 52 10 43 0zM377 404l-163 -205l147 -193c6 -8 -31 -18 -41 -3l-148 191l162 210c14 17 52 10 43 0z" />
    <glyph glyph-name="guillemotright" unicode="&#xbb;" horiz-adv-x="387" 
d="M196 404l163 -210l-148 -191c-10 -15 -47 -5 -42 3l147 193l-162 205c-9 10 29 17 42 0zM74 404l163 -210l-148 -191c-10 -15 -47 -5 -42 3l147 193l-163 205c-9 10 30 17 43 0z" />
    <glyph glyph-name="Agrave" unicode="&#xc0;" horiz-adv-x="836" 
d="M440 826l346 -765c7 -21 18 -39 40 -39c15 0 16 -21 0 -22h-256c-14 0 -12 22 0 22h81s-18 12 -31 37l-100 220h-289c-39 -103 -51 -196 -42 -257h61c15 0 18 -23 0 -22h-201c-15 -1 -12 21 0 22h10c17 0 33 20 49 54zM240 304h267s-127 283 -131 310zM530 887h-45
l-84 59c-64 45 -110 66 -105 100c3 13 14 29 32 33c38 6 65 -30 122 -98z" />
    <glyph glyph-name="Atilde" unicode="&#xc3;" horiz-adv-x="836" 
d="M440 826l346 -765c7 -21 18 -39 40 -39c15 0 16 -21 0 -22h-256c-14 0 -12 22 0 22h81s-18 12 -31 37l-100 220h-289c-39 -103 -51 -196 -42 -257h61c15 0 18 -23 0 -22h-201c-15 -1 -12 21 0 22h10c17 0 33 20 49 54zM240 304h267s-127 283 -131 310zM569 1012h30
c-9 -30 -29 -103 -76 -117c-49 -16 -92 20 -153 42c-20 8 -39 7 -52 -5c-9 -8 -15 -16 -27 -45h-32c11 46 27 106 81 120c61 15 89 -37 158 -51c21 -3 38 0 53 19c8 9 14 28 18 37z" />
    <glyph glyph-name="Otilde" unicode="&#xd5;" horiz-adv-x="880" 
d="M226 404c1 -212 79 -395 242 -395c194 0 241 183 242 395c2 190 -69 374 -243 374c-173 0 -243 -184 -241 -374zM872 389c-2 -239 -182 -407 -407 -407c-234 0 -403 168 -406 407c-2 224 158 416 407 416c249 -1 408 -192 406 -416zM608 1012h31
c-9 -30 -30 -103 -77 -117c-49 -16 -92 20 -152 42c-21 8 -40 7 -53 -5c-9 -8 -15 -16 -27 -45h-31c11 46 26 106 80 120c61 15 89 -37 159 -51c20 -3 38 0 52 19c8 9 14 28 18 37z" />
    <glyph glyph-name="endash" unicode="&#x2013;" horiz-adv-x="992" 
d="M122 196h801v-39h-801v39z" />
    <glyph glyph-name="emdash" unicode="&#x2014;" horiz-adv-x="1129" 
d="M1059 202v-66h-937v66h937z" />
    <glyph glyph-name="quotedblleft" unicode="&#x201c;" horiz-adv-x="412" 
d="M407 801c0 -3 0 -6 -1 -9c-5 -7 -15 -4 -29 -6c-22 -4 -65 -17 -72 -62c27 14 62 7 86 -19c14 -16 20 -46 12 -73c-6 -23 -25 -44 -52 -52c-20 -6 -51 -4 -73 13c-28 22 -33 57 -32 83c1 37 16 80 65 113c14 9 36 19 62 21c12 1 33 1 34 -9zM204 801c0 -3 0 -6 -1 -9
c-5 -7 -16 -4 -29 -6c-22 -4 -65 -17 -72 -62c27 14 62 7 85 -19c15 -16 21 -46 13 -73c-6 -23 -25 -44 -52 -52c-20 -6 -51 -4 -73 13c-28 22 -33 57 -32 83c1 37 15 80 65 113c14 9 36 19 61 21c13 1 34 1 35 -9z" />
    <glyph glyph-name="quotedblright" unicode="&#x201d;" horiz-adv-x="412" 
d="M44 587c0 3 0 7 1 9c6 8 16 4 29 7c23 3 65 17 72 61c-27 -14 -62 -6 -85 20c-15 15 -21 46 -13 72c6 23 25 44 52 52c20 7 52 5 73 -12c28 -23 34 -58 32 -83c-1 -37 -15 -81 -65 -114c-14 -9 -36 -19 -61 -21c-13 -1 -34 -1 -35 9zM247 587c0 3 0 7 1 9c6 8 16 4 29 7
c23 3 65 17 72 61c-27 -14 -62 -6 -85 20c-15 15 -20 46 -13 72c6 23 25 44 52 52c20 7 52 5 73 -12c28 -23 34 -58 33 -83c-2 -37 -16 -81 -66 -114c-14 -9 -35 -19 -61 -21c-13 -1 -34 -1 -35 9z" />
    <glyph glyph-name="quoteleft" unicode="&#x2018;" horiz-adv-x="229" 
d="M209 801c0 -3 0 -6 -1 -9c-6 -7 -16 -4 -30 -6c-22 -4 -65 -17 -71 -62c27 14 61 7 85 -19c15 -16 20 -46 12 -73c-5 -23 -27 -42 -54 -50c-20 -6 -49 -6 -70 11c-28 22 -34 57 -33 83c1 37 16 80 65 113c15 9 36 19 62 21c12 1 34 1 35 -9z" />
    <glyph glyph-name="quoteright" unicode="&#x2019;" horiz-adv-x="229" 
d="M49 587c0 3 0 7 2 9c5 8 15 4 29 7c22 3 65 17 72 61c-27 -14 -62 -6 -86 20c-14 15 -20 46 -12 72c5 23 25 44 51 52c21 7 52 5 73 -12c29 -23 34 -58 33 -83c-1 -37 -16 -81 -65 -114c-15 -9 -36 -19 -62 -21c-12 -1 -33 -1 -35 9z" />
    <glyph glyph-name="ydieresis" unicode="&#xff;" horiz-adv-x="490" 
d="M102 350c-9 23 -14 32 -46 32c-11 0 -11 15 0 15h221c11 0 11 -15 0 -15h-62c8 -8 18 -11 34 -46l57 -122c17 -38 22 -79 22 -79l30 67c26 60 49 122 36 180h-43c-10 0 -11 15 0 15h139c11 0 9 -15 0 -15h-7c-19 -18 -58 -94 -69 -119l-145 -314
c-61 -134 -153 -123 -176 -123v137c0 13 16 10 16 0v-48c21 -15 46 -34 76 -24c34 11 71 83 81 108zM237 547c-1 -33 -29 -59 -62 -58c-32 1 -58 30 -57 62c1 33 29 58 62 57c32 -1 58 -29 57 -61zM442 547c-1 -33 -29 -59 -62 -58c-32 1 -58 30 -57 62c1 33 29 58 62 57
s58 -29 57 -61z" />
    <glyph glyph-name="Ydieresis" unicode="&#x178;" horiz-adv-x="730" 
d="M459 79c0 -34 -1 -41 -11 -57h83c11 0 10 -22 0 -22h-271c-13 0 -10 22 0 22h15c35 0 30 39 30 59v310l-221 358s-14 18 -31 18h-14c-17 0 -15 22 0 22h267c17 0 17 -22 0 -22h-73s23 -13 34 -32l181 -293s50 88 69 126c57 114 52 156 52 199h-76c-16 0 -15 22 -1 22h212
c15 0 14 -22 0 -22h-33c-14 -8 -40 -57 -40 -57l-172 -306v-325zM305 887h-46l79 89c38 44 76 107 124 100c17 -2 28 -14 32 -32c4 -34 -48 -64 -103 -100z" />
    <glyph glyph-name="fraction" unicode="&#x2044;" horiz-adv-x="730" 
d="M464 79c0 -34 -2 -41 -12 -57h83c12 0 10 -22 0 -22h-270c-14 0 -10 22 0 22h14c35 0 31 39 31 59v310l-221 358s-15 18 -32 18h-13c-17 0 -16 22 0 22h267c17 0 17 -22 0 -22h-73s22 -13 34 -32l180 -293s51 88 70 126c56 114 52 156 52 199h-77c-16 0 -14 22 -1 22h212
c16 0 15 -22 0 -22h-32c-15 -8 -41 -57 -41 -57l-171 -306v-325zM338 944c-1 -33 -29 -58 -62 -57c-32 1 -58 29 -57 61c1 33 29 59 62 58c32 -2 58 -30 57 -62zM543 944c-1 -33 -29 -58 -62 -57c-32 1 -58 29 -57 61c1 33 29 59 62 58c33 -2 58 -30 57 -62z" />
    <glyph glyph-name="guilsinglleft" unicode="&#x2039;" horiz-adv-x="900" 
d="M841 533c-5 -40 -44 -71 -85 -66c-40 4 -69 45 -65 85c5 41 43 70 83 65c41 -4 71 -43 67 -84zM871 397c13 0 13 -15 0 -15c-15 0 -38 -5 -38 -44v-277c0 -34 -11 -45 -11 -45h70c10 0 14 -16 0 -16h-224c-13 0 -11 16 0 16c29 0 38 4 38 43v278c0 26 11 45 11 45h-176
v-321c0 -34 -11 -45 -11 -45h70c11 0 14 -16 0 -16h-224c-12 0 -11 16 0 16c29 0 38 12 38 43v323h-165v-321c0 -34 -11 -45 -11 -45h71c10 0 13 -16 0 -16h-225c-12 0 -11 16 0 16c29 0 38 12 38 43v323h-57c-12 0 -11 15 0 15h57v146c0 112 8 204 93 250
c54 30 118 25 182 -1v17c0 10 16 11 16 0v-152c0 -11 -16 -11 -16 0v46c-10 14 -47 64 -67 78c-17 12 -37 10 -47 5c-36 -24 -34 -65 -34 -166v-223h165v146c0 112 8 204 93 250c54 30 118 25 182 -1v17c0 10 16 11 16 0v-152c0 -11 -16 -11 -16 0v46c-10 14 -47 64 -67 78
c-17 12 -37 10 -47 5c-36 -24 -34 -65 -34 -166v-223h330z" />
    <glyph glyph-name="guilsinglright" unicode="&#x203a;" horiz-adv-x="900" 
d="M705 657c-29 74 -63 110 -83 124c-17 12 -37 10 -47 5c-36 -24 -34 -65 -34 -166v-223h113c14 0 13 -15 0 -15h-113v-321c0 -34 -11 -45 -11 -45h70c11 0 14 -16 0 -16h-224c-12 0 -11 16 0 16c29 0 38 12 38 43v323h-165v-321c0 -34 -11 -45 -11 -45h71
c10 0 13 -16 0 -16h-225c-12 0 -11 16 0 16c29 0 38 12 38 43v323h-57c-12 0 -11 15 0 15h57v146c0 112 8 204 93 250c54 30 118 25 182 -1v17c0 10 16 11 16 0v-152c0 -11 -16 -11 -16 0v46c-10 14 -47 64 -67 78c-17 12 -37 10 -47 5c-36 -24 -34 -65 -34 -166v-223h165
v146c0 112 8 204 93 250c54 30 124 23 198 -6v24h166c13 0 13 -15 0 -15c-15 0 -38 -5 -38 -44v-691c0 -34 -11 -45 -11 -45h70c10 0 14 -16 0 -16h-224c-13 0 -11 16 0 16c29 0 38 4 38 43z" />
    <glyph glyph-name="fi" unicode="&#xfb01;" horiz-adv-x="572" 
d="M513 533c-5 -40 -44 -71 -84 -66c-41 4 -70 45 -65 85c4 41 42 70 83 65c40 -4 70 -43 66 -84zM249 382v-321c0 -34 -11 -45 -11 -45h71c10 0 13 -16 0 -16h-225c-12 0 -11 16 0 16c29 0 38 12 38 43v323h-57c-12 0 -11 15 0 15h57v146c0 112 8 203 93 250
c51 29 105 24 160 -1v17c0 10 16 11 16 0v-152c0 -11 -16 -9 -16 0v46c-16 40 -28 64 -45 78c-15 14 -37 10 -47 5c-36 -24 -34 -65 -34 -166v-223h294c14 0 14 -15 0 -15s-38 -5 -38 -44v-277c0 -34 -11 -45 -11 -45h71c10 0 13 -16 0 -16h-225c-12 0 -11 16 0 16
c29 0 38 4 38 43v278c0 26 11 45 11 45h-140z" />
    <glyph glyph-name="fl" unicode="&#xfb02;" horiz-adv-x="608" 
d="M65 382c-12 0 -11 15 0 15h57v146c0 112 8 204 93 250c54 30 124 23 198 -6v24h166c14 0 14 -15 0 -15s-38 -5 -38 -44v-691c0 -34 -11 -45 -11 -45h70c11 0 14 -16 0 -16h-224c-12 0 -11 16 0 16c29 0 38 4 38 43v598c-29 74 -64 110 -84 124c-17 12 -37 10 -47 5
c-36 -24 -34 -65 -34 -166v-223h114c13 0 12 -15 0 -15h-114v-321c0 -34 -11 -45 -11 -45h71c10 0 13 -16 0 -16h-225c-12 0 -11 16 0 16c29 0 38 12 38 43v323h-57z" />
    <glyph glyph-name="periodcentered" unicode="&#xb7;" horiz-adv-x="294" 
d="M165 6h45l-48 -76c33 2 87 2 116 -34c15 -18 23 -41 16 -65c-8 -32 -27 -51 -62 -66c-58 -27 -144 -20 -212 11c-14 11 6 49 25 38c34 -16 98 -27 129 -9c18 10 25 22 27 39c2 22 -16 42 -39 45s-44 -2 -65 -10c-8 -5 -20 8 -14 16z" />
    <glyph glyph-name="Acircumflex" unicode="&#xc2;" horiz-adv-x="836" 
d="M440 826l346 -765c7 -21 18 -39 40 -39c15 0 16 -21 0 -22h-256c-14 0 -12 22 0 22h81s-18 12 -31 37l-100 220h-289c-39 -103 -51 -196 -42 -257h61c15 0 18 -23 0 -22h-201c-15 -1 -12 21 0 22h10c17 0 33 20 49 54zM240 304h267s-127 283 -131 310zM412 1074h75
l124 -187h-42l-119 123l-119 -123h-43z" />
    <glyph glyph-name="Ecircumflex" unicode="&#xca;" horiz-adv-x="669" 
d="M77 0c-13 0 -10 22 0 22h15c35 0 30 39 30 59v629c0 34 1 41 12 57h-83c-13 0 -12 22 0 22h571v25c0 10 22 12 22 0v-200c0 -16 -22 -15 -22 0v68c-50 46 -84 69 -157 80c-36 6 -151 6 -163 3c-29 -4 -26 -21 -26 -123v-186h6c106 0 194 6 214 42v47c0 14 21 16 23 0
v-251c0 -12 -23 -11 -23 0v86c-45 50 -92 52 -220 52v-351c0 -39 -6 -47 -11 -59h91c45 0 102 2 150 14c60 15 130 44 152 89v73c0 14 21 15 22 0v-224c0 -9 -22 -9 -22 1v25h-581zM316 1074h76l123 -187h-41l-119 123l-119 -123h-43z" />
    <glyph glyph-name="Aacute" unicode="&#xc1;" horiz-adv-x="836" 
d="M440 826l346 -765c7 -21 18 -39 40 -39c15 0 16 -21 0 -22h-256c-14 0 -12 22 0 22h81s-18 12 -31 37l-100 220h-289c-39 -103 -51 -196 -42 -257h61c15 0 18 -23 0 -22h-201c-15 -1 -12 21 0 22h10c17 0 33 20 49 54zM240 304h267s-127 283 -131 310zM351 887h-46l79 89
c38 44 76 107 124 100c17 -2 28 -14 32 -32c4 -34 -48 -64 -103 -100z" />
    <glyph glyph-name="Edieresis" unicode="&#xcb;" horiz-adv-x="669" 
d="M77 0c-13 0 -10 22 0 22h15c35 0 30 39 30 59v629c0 34 1 41 12 57h-83c-13 0 -12 22 0 22h571v25c0 10 22 12 22 0v-200c0 -16 -22 -15 -22 0v68c-50 46 -84 69 -157 80c-36 6 -151 6 -163 3c-29 -4 -26 -21 -26 -123v-186h6c106 0 194 6 214 42v47c0 14 21 16 23 0
v-251c0 -12 -23 -11 -23 0v86c-45 50 -92 52 -220 52v-351c0 -39 -6 -47 -11 -59h91c45 0 102 2 150 14c60 15 130 44 152 89v73c0 14 21 15 22 0v-224c0 -9 -22 -9 -22 1v25h-581zM315 944c-1 -33 -29 -58 -61 -57c-33 1 -59 29 -58 61c2 33 30 59 62 58
c33 -2 58 -30 57 -62zM521 944c-1 -33 -29 -58 -62 -57s-58 29 -57 61c1 33 29 59 62 58c32 -2 58 -30 57 -62z" />
    <glyph glyph-name="Egrave" unicode="&#xc8;" horiz-adv-x="669" 
d="M77 0c-13 0 -10 22 0 22h15c35 0 30 39 30 59v629c0 34 1 41 12 57h-83c-13 0 -12 22 0 22h571v25c0 10 22 12 22 0v-200c0 -16 -22 -15 -22 0v68c-50 46 -84 69 -157 80c-36 6 -151 6 -163 3c-29 -4 -26 -21 -26 -123v-186h6c106 0 194 6 214 42v47c0 14 21 16 23 0
v-251c0 -12 -23 -11 -23 0v86c-45 50 -92 52 -220 52v-351c0 -39 -6 -47 -11 -59h91c45 0 102 2 150 14c60 15 130 44 152 89v73c0 14 21 15 22 0v-224c0 -9 -22 -9 -22 1v25h-581zM527 887h-44l-85 59c-64 45 -110 66 -104 100c2 13 14 29 31 33c39 6 66 -30 123 -98z" />
    <glyph glyph-name="Iacute" unicode="&#xcd;" horiz-adv-x="346" 
d="M276 79c0 -34 -1 -41 -11 -57h83c11 0 10 -22 0 -22h-271c-13 0 -10 22 0 22h15c35 0 30 39 30 59v629c0 34 1 41 12 57h-83c-13 0 -12 22 0 22h270c11 0 12 -22 -1 -22h-14c-34 0 -30 -37 -30 -58v-630zM120 887h-46l79 89c38 44 76 107 124 100c17 -2 28 -14 32 -32
c4 -34 -49 -64 -104 -100z" />
    <glyph glyph-name="Icircumflex" unicode="&#xce;" horiz-adv-x="346" 
d="M276 79c0 -34 -1 -41 -11 -57h83c11 0 10 -22 0 -22h-271c-13 0 -10 22 0 22h15c35 0 30 39 30 59v629c0 34 1 41 12 57h-83c-13 0 -12 22 0 22h270c11 0 12 -22 -1 -22h-14c-34 0 -30 -37 -30 -58v-630zM158 1074h75l124 -187h-42l-119 123l-119 -123h-42z" />
    <glyph glyph-name="Idieresis" unicode="&#xcf;" horiz-adv-x="346" 
d="M276 79c0 -34 -1 -41 -11 -57h83c11 0 10 -22 0 -22h-271c-13 0 -10 22 0 22h15c35 0 30 39 30 59v629c0 34 1 41 12 57h-83c-13 0 -12 22 0 22h270c11 0 12 -22 -1 -22h-14c-34 0 -30 -37 -30 -58v-630zM148 944c-1 -33 -29 -58 -62 -57c-32 1 -58 29 -57 61
c1 33 29 59 62 58c32 -2 58 -30 57 -62zM354 944c-2 -33 -30 -58 -62 -57c-33 1 -59 29 -57 61c1 33 29 59 61 58c33 -2 59 -30 58 -62z" />
    <glyph glyph-name="Igrave" unicode="&#xcc;" horiz-adv-x="346" 
d="M276 79c0 -34 -1 -41 -11 -57h83c11 0 10 -22 0 -22h-271c-13 0 -10 22 0 22h15c35 0 30 39 30 59v629c0 34 1 41 12 57h-83c-13 0 -12 22 0 22h270c11 0 12 -22 -1 -22h-14c-34 0 -30 -37 -30 -58v-630zM325 887h-44l-85 59c-64 45 -110 66 -104 100c2 13 13 29 31 33
c39 6 66 -30 123 -98z" />
    <glyph glyph-name="Oacute" unicode="&#xd3;" horiz-adv-x="880" 
d="M226 404c1 -212 79 -395 242 -395c194 0 241 183 242 395c2 190 -69 374 -243 374c-173 0 -243 -184 -241 -374zM872 389c-2 -239 -182 -407 -407 -407c-234 0 -403 168 -406 407c-2 224 158 416 407 416c249 -1 408 -192 406 -416zM371 887h-46l79 89
c38 44 76 107 125 100c16 -2 28 -14 31 -32c5 -34 -48 -64 -103 -100z" />
    <glyph glyph-name="Ocircumflex" unicode="&#xd4;" horiz-adv-x="880" 
d="M226 404c1 -212 79 -395 242 -395c194 0 241 183 242 395c2 190 -69 374 -243 374c-173 0 -243 -184 -241 -374zM872 389c-2 -239 -182 -407 -407 -407c-234 0 -403 168 -406 407c-2 224 158 416 407 416c249 -1 408 -192 406 -416zM435 1074h76l123 -187h-41l-119 123
l-119 -123h-43z" />
    <glyph glyph-name="Ograve" unicode="&#xd2;" horiz-adv-x="880" 
d="M226 404c1 -212 79 -395 242 -395c194 0 241 183 242 395c2 190 -69 374 -243 374c-173 0 -243 -184 -241 -374zM872 389c-2 -239 -182 -407 -407 -407c-234 0 -403 168 -406 407c-2 224 158 416 407 416c249 -1 408 -192 406 -416zM603 887h-45l-84 59
c-64 45 -110 66 -105 100c2 13 14 29 32 33c38 6 65 -30 122 -98z" />
    <glyph glyph-name="Uacute" unicode="&#xda;" horiz-adv-x="852" 
d="M782 330c0 -109 -18 -237 -162 -315c-105 -57 -272 -32 -345 13c-137 82 -153 209 -153 326v356c0 34 1 41 12 57h-83c-13 0 -12 22 0 22h270c11 0 12 -22 -1 -22h-14c-34 0 -30 -37 -30 -58v-341c0 -172 0 -275 106 -334c64 -37 167 -26 233 13c139 82 130 226 130 292
v80c-7 190 -30 313 -27 348h-70c-18 0 -18 22 1 22h194c13 0 14 -22 0 -22h-32c-18 -31 -29 -185 -29 -266v-171zM411 887h-46l78 89c38 44 77 107 125 100c17 -2 28 -14 31 -32c5 -34 -48 -64 -103 -100z" />
    <glyph glyph-name="Ucircumflex" unicode="&#xdb;" horiz-adv-x="852" 
d="M782 330c0 -109 -18 -237 -162 -315c-105 -57 -272 -32 -345 13c-137 82 -153 209 -153 326v356c0 34 1 41 12 57h-83c-13 0 -12 22 0 22h270c11 0 12 -22 -1 -22h-14c-34 0 -30 -37 -30 -58v-341c0 -172 0 -275 106 -334c64 -37 167 -26 233 13c139 82 130 226 130 292
v80c-7 190 -30 313 -27 348h-70c-18 0 -18 22 1 22h194c13 0 14 -22 0 -22h-32c-18 -31 -29 -185 -29 -266v-171zM433 1074h75l124 -187h-42l-119 123l-119 -123h-42z" />
    <glyph glyph-name="Ugrave" unicode="&#xd9;" horiz-adv-x="852" 
d="M782 330c0 -109 -18 -237 -162 -315c-105 -57 -272 -32 -345 13c-137 82 -153 209 -153 326v356c0 34 1 41 12 57h-83c-13 0 -12 22 0 22h270c11 0 12 -22 -1 -22h-14c-34 0 -30 -37 -30 -58v-341c0 -172 0 -275 106 -334c64 -37 167 -26 233 13c139 82 130 226 130 292
v80c-7 190 -30 313 -27 348h-70c-18 0 -18 22 1 22h194c13 0 14 -22 0 -22h-32c-18 -31 -29 -185 -29 -266v-171zM559 887h-45l-84 59c-64 45 -110 66 -105 100c3 13 14 29 32 33c38 6 65 -30 122 -98z" />
    <glyph glyph-name="dotlessi" unicode="&#x131;" horiz-adv-x="316" 
d="M134 382h-71c-12 0 -10 15 0 15h224c14 0 14 -15 0 -15s-38 -5 -38 -44v-277c0 -34 -11 -45 -11 -45h71c10 0 13 -16 0 -16h-225c-12 0 -11 16 0 16c29 0 38 4 38 43v278c0 26 12 45 12 45z" />
    <glyph glyph-name="circumflex" unicode="&#x2c6;" horiz-adv-x="393" 
d="M177 654h76l123 -187h-42l-119 123l-118 -123h-43z" />
    <glyph glyph-name="tilde" unicode="&#x2dc;" horiz-adv-x="412" 
d="M359 593h30c-9 -31 -29 -104 -76 -118c-49 -16 -92 20 -153 42c-20 8 -39 7 -52 -5c-9 -8 -15 -16 -27 -45h-32c12 46 27 107 81 120c61 16 89 -37 158 -51c21 -3 39 0 53 20c8 9 14 28 18 37z" />
    <glyph glyph-name="ring" unicode="&#x2da;" horiz-adv-x="296" 
d="M176 650c-38 2 -72 -26 -74 -64s25 -73 63 -75c38 -3 73 25 75 64c2 38 -26 73 -64 75zM282 563c-8 -60 -67 -103 -127 -95c-61 8 -103 67 -96 128c8 61 67 102 127 94c61 -8 104 -66 96 -127z" />
    </font>
</defs>
</svg>
